<?xml version="1.0" encoding="UTF-8"?>
<svg xmlns="http://www.w3.org/2000/svg" xmlns:xlink="http://www.w3.org/1999/xlink" width="48px" height="48px" viewBox="0 0 48 48" version="1.1">
<g id="surface1">
<path style=" stroke:none;fill-rule:nonzero;fill:rgb(0%,0%,0%);fill-opacity:1;" d="M 36.710938 9.808594 C 36.703125 9.808594 36.695312 9.808594 36.683594 9.808594 C 36.523438 9.796875 36.40625 9.65625 36.421875 9.496094 C 36.4375 9.308594 36.546875 7.664062 35.351562 6.636719 C 34.203125 5.65625 32.382812 5.660156 31.019531 6.648438 C 30.890625 6.742188 30.710938 6.714844 30.617188 6.585938 C 30.523438 6.457031 30.550781 6.277344 30.679688 6.183594 C 31.453125 5.625 32.382812 5.320312 33.300781 5.324219 C 34.214844 5.328125 35.078125 5.640625 35.726562 6.195312 C 36.328125 6.710938 36.726562 7.40625 36.90625 8.257812 C 37.042969 8.886719 37.011719 9.402344 37 9.546875 C 36.984375 9.695312 36.855469 9.808594 36.710938 9.808594 Z M 36.710938 9.808594 "/>
<path style=" stroke:none;fill-rule:nonzero;fill:rgb(0%,0%,0%);fill-opacity:1;" d="M 30.703125 8.980469 C 30.695312 8.980469 30.6875 8.980469 30.679688 8.980469 C 29.765625 8.972656 28.902344 8.660156 28.253906 8.105469 C 27.652344 7.589844 27.257812 6.894531 27.074219 6.042969 C 26.941406 5.414062 26.972656 4.902344 26.984375 4.757812 C 26.996094 4.597656 27.136719 4.480469 27.296875 4.496094 C 27.457031 4.511719 27.574219 4.648438 27.558594 4.808594 C 27.542969 4.996094 27.433594 6.640625 28.632812 7.667969 C 29.777344 8.648438 31.597656 8.640625 32.960938 7.652344 C 33.089844 7.558594 33.269531 7.589844 33.363281 7.71875 C 33.457031 7.847656 33.429688 8.027344 33.300781 8.121094 C 32.535156 8.671875 31.613281 8.980469 30.703125 8.980469 Z M 30.703125 8.980469 "/>
<path style=" stroke:none;fill-rule:nonzero;fill:rgb(0%,0%,0%);fill-opacity:1;" d="M 29.445312 13.320312 C 29.429688 13.320312 29.414062 13.320312 29.398438 13.316406 C 29.238281 13.292969 29.132812 13.140625 29.15625 12.984375 C 29.304688 12.042969 29.75 11.171875 30.402344 10.523438 C 31.054688 9.882812 31.882812 9.492188 32.734375 9.425781 C 33.523438 9.367188 34.296875 9.578125 35.027344 10.046875 C 35.566406 10.398438 35.910156 10.785156 36.003906 10.894531 C 36.105469 11.015625 36.089844 11.199219 35.964844 11.300781 C 35.84375 11.40625 35.660156 11.386719 35.558594 11.265625 C 35.4375 11.125 34.351562 9.882812 32.777344 10.003906 C 31.277344 10.117188 29.992188 11.414062 29.726562 13.074219 C 29.703125 13.21875 29.582031 13.320312 29.445312 13.320312 Z M 29.445312 13.320312 "/>
<path style=" stroke:none;fill-rule:nonzero;fill:rgb(0%,0%,0%);fill-opacity:1;" d="M 28.578125 15.746094 C 28.542969 15.746094 28.507812 15.738281 28.472656 15.726562 C 27.585938 15.378906 26.828125 14.761719 26.335938 13.984375 C 25.851562 13.210938 25.644531 12.316406 25.765625 11.46875 C 25.875 10.683594 26.242188 9.976562 26.863281 9.363281 C 27.320312 8.910156 27.769531 8.660156 27.898438 8.59375 C 28.039062 8.515625 28.214844 8.574219 28.289062 8.714844 C 28.363281 8.855469 28.308594 9.03125 28.167969 9.105469 C 28.003906 9.191406 26.554688 9.988281 26.335938 11.546875 C 26.128906 13.042969 27.113281 14.574219 28.683594 15.1875 C 28.832031 15.246094 28.90625 15.414062 28.847656 15.5625 C 28.800781 15.675781 28.695312 15.746094 28.578125 15.746094 Z M 28.578125 15.746094 "/>
<path style=" stroke:none;fill-rule:nonzero;fill:rgb(0%,0%,0%);fill-opacity:1;" d="M 42.347656 16.203125 C 42.339844 16.203125 42.332031 16.203125 42.320312 16.203125 C 42.164062 16.191406 42.046875 16.050781 42.058594 15.890625 C 42.078125 15.703125 42.183594 14.058594 40.988281 13.03125 C 39.84375 12.050781 38.019531 12.058594 36.65625 13.046875 C 36.527344 13.140625 36.347656 13.109375 36.253906 12.980469 C 36.160156 12.851562 36.191406 12.671875 36.320312 12.578125 C 37.089844 12.019531 38.019531 11.714844 38.941406 11.71875 C 39.855469 11.722656 40.714844 12.035156 41.363281 12.59375 C 41.964844 13.109375 42.363281 13.800781 42.546875 14.65625 C 42.679688 15.285156 42.648438 15.796875 42.636719 15.941406 C 42.625 16.089844 42.496094 16.203125 42.347656 16.203125 Z M 42.347656 16.203125 "/>
<path style=" stroke:none;fill-rule:nonzero;fill:rgb(0%,0%,0%);fill-opacity:1;" d="M 37.367188 15.640625 C 37.359375 15.640625 37.351562 15.640625 37.339844 15.640625 C 36.425781 15.632812 35.566406 15.320312 34.917969 14.765625 C 34.316406 14.25 33.917969 13.554688 33.734375 12.703125 C 33.601562 12.074219 33.632812 11.5625 33.644531 11.417969 C 33.660156 11.257812 33.796875 11.140625 33.960938 11.15625 C 34.117188 11.171875 34.234375 11.308594 34.222656 11.46875 C 34.203125 11.65625 34.097656 13.300781 35.296875 14.328125 C 36.4375 15.308594 38.261719 15.300781 39.625 14.3125 C 39.753906 14.21875 39.933594 14.25 40.027344 14.378906 C 40.121094 14.507812 40.09375 14.6875 39.960938 14.78125 C 39.199219 15.332031 38.277344 15.640625 37.367188 15.640625 Z M 37.367188 15.640625 "/>
<path style=" stroke:none;fill-rule:nonzero;fill:rgb(0%,0%,0%);fill-opacity:1;" d="M 38.414062 20.820312 C 38.40625 20.820312 38.398438 20.820312 38.386719 20.820312 C 38.230469 20.804688 38.113281 20.667969 38.125 20.503906 C 38.144531 20.320312 38.25 18.675781 37.054688 17.648438 C 35.910156 16.664062 34.085938 16.671875 32.722656 17.660156 C 32.59375 17.753906 32.414062 17.726562 32.320312 17.597656 C 32.226562 17.46875 32.257812 17.289062 32.386719 17.195312 C 33.148438 16.640625 34.070312 16.335938 34.980469 16.335938 C 34.988281 16.335938 34.996094 16.335938 35.007812 16.335938 C 35.921875 16.339844 36.78125 16.652344 37.429688 17.207031 C 38.03125 17.722656 38.429688 18.417969 38.609375 19.269531 C 38.746094 19.898438 38.714844 20.414062 38.703125 20.554688 C 38.6875 20.707031 38.5625 20.820312 38.414062 20.820312 Z M 38.414062 20.820312 "/>
<path style=" stroke:none;fill-rule:nonzero;fill:rgb(0%,0%,0%);fill-opacity:1;" d="M 32.925781 19.867188 C 32.890625 19.867188 32.855469 19.859375 32.824219 19.847656 C 31.9375 19.5 31.179688 18.882812 30.6875 18.105469 C 30.199219 17.328125 29.996094 16.4375 30.113281 15.589844 C 30.222656 14.804688 30.59375 14.097656 31.210938 13.484375 C 31.667969 13.03125 32.117188 12.78125 32.246094 12.710938 C 32.386719 12.640625 32.5625 12.695312 32.636719 12.835938 C 32.710938 12.976562 32.65625 13.152344 32.515625 13.226562 C 32.351562 13.3125 30.90625 14.109375 30.6875 15.671875 C 30.476562 17.164062 31.464844 18.695312 33.035156 19.308594 C 33.183594 19.363281 33.253906 19.535156 33.195312 19.683594 C 33.152344 19.796875 33.042969 19.867188 32.925781 19.867188 Z M 32.925781 19.867188 "/>
<path style=" stroke:none;fill-rule:nonzero;fill:rgb(0%,0%,0%);fill-opacity:1;" d="M 38.464844 23.40625 C 38.328125 23.40625 38.210938 23.3125 38.179688 23.175781 C 38.148438 23.019531 38.25 22.863281 38.40625 22.832031 C 38.589844 22.796875 40.199219 22.425781 40.835938 20.984375 C 41.445312 19.605469 40.914062 17.863281 39.578125 16.84375 C 39.449219 16.746094 39.425781 16.566406 39.519531 16.4375 C 39.617188 16.308594 39.796875 16.285156 39.925781 16.382812 C 40.683594 16.960938 41.242188 17.761719 41.503906 18.644531 C 41.761719 19.519531 41.710938 20.4375 41.367188 21.21875 C 41.046875 21.945312 40.496094 22.519531 39.734375 22.941406 C 39.167969 23.25 38.667969 23.367188 38.527344 23.398438 C 38.503906 23.402344 38.484375 23.40625 38.464844 23.40625 Z M 38.464844 23.40625 "/>
<path style=" stroke:none;fill-rule:nonzero;fill:rgb(0%,0%,0%);fill-opacity:1;" d="M 33.75 28.144531 C 33.605469 28.144531 33.496094 28.136719 33.441406 28.132812 C 33.285156 28.117188 33.164062 27.980469 33.179688 27.820312 C 33.195312 27.65625 33.332031 27.542969 33.496094 27.554688 C 33.679688 27.574219 35.324219 27.679688 36.351562 26.484375 C 37.335938 25.339844 37.328125 23.515625 36.339844 22.15625 C 36.246094 22.023438 36.273438 21.84375 36.402344 21.75 C 36.53125 21.65625 36.710938 21.6875 36.804688 21.816406 C 37.363281 22.585938 37.671875 23.515625 37.664062 24.4375 C 37.660156 25.351562 37.347656 26.210938 36.792969 26.859375 C 36.277344 27.464844 35.582031 27.859375 34.730469 28.042969 C 34.335938 28.125 33.992188 28.144531 33.75 28.144531 Z M 33.75 28.144531 "/>
<path style=" stroke:none;fill-rule:nonzero;fill:rgb(0%,0%,0%);fill-opacity:1;" d="M 32.730469 30.53125 C 32.691406 30.53125 32.652344 30.523438 32.613281 30.507812 C 31.742188 30.121094 31.011719 29.46875 30.554688 28.671875 C 30.101562 27.882812 29.933594 26.980469 30.089844 26.140625 C 30.234375 25.359375 30.632812 24.667969 31.277344 24.082031 C 31.753906 23.648438 32.214844 23.417969 32.34375 23.355469 C 32.488281 23.289062 32.660156 23.351562 32.730469 23.496094 C 32.796875 23.640625 32.734375 23.8125 32.589844 23.878906 C 32.421875 23.957031 30.945312 24.695312 30.65625 26.242188 C 30.382812 27.726562 31.304688 29.296875 32.847656 29.980469 C 32.992188 30.046875 33.058594 30.214844 32.992188 30.363281 C 32.949219 30.46875 32.839844 30.53125 32.730469 30.53125 Z M 32.730469 30.53125 "/>
<path style=" stroke:none;fill-rule:nonzero;fill:rgb(0%,0%,0%);fill-opacity:1;" d="M 28.578125 27.035156 C 28.542969 27.035156 28.507812 27.027344 28.472656 27.015625 C 27.585938 26.667969 26.828125 26.050781 26.335938 25.273438 C 25.851562 24.5 25.644531 23.605469 25.765625 22.757812 C 25.875 21.976562 26.242188 21.265625 26.863281 20.652344 C 27.320312 20.203125 27.769531 19.949219 27.898438 19.882812 C 28.039062 19.808594 28.214844 19.863281 28.289062 20.003906 C 28.363281 20.144531 28.308594 20.320312 28.167969 20.394531 C 28.003906 20.480469 26.554688 21.277344 26.335938 22.839844 C 26.128906 24.332031 27.113281 25.863281 28.683594 26.476562 C 28.832031 26.535156 28.90625 26.703125 28.847656 26.851562 C 28.800781 26.964844 28.695312 27.035156 28.578125 27.035156 Z M 28.578125 27.035156 "/>
<path style=" stroke:none;fill-rule:nonzero;fill:rgb(0%,0%,0%);fill-opacity:1;" d="M 35.320312 25.902344 C 35.257812 25.902344 35.195312 25.882812 35.144531 25.84375 C 34.386719 25.265625 33.824219 24.464844 33.566406 23.578125 C 33.308594 22.703125 33.359375 21.789062 33.703125 21.007812 C 34.023438 20.28125 34.574219 19.703125 35.335938 19.285156 C 35.902344 18.976562 36.402344 18.855469 36.542969 18.828125 C 36.699219 18.796875 36.851562 18.894531 36.882812 19.054688 C 36.914062 19.210938 36.816406 19.363281 36.65625 19.394531 C 36.476562 19.433594 34.867188 19.800781 34.230469 21.242188 C 33.617188 22.621094 34.148438 24.363281 35.488281 25.386719 C 35.617188 25.480469 35.640625 25.664062 35.542969 25.789062 C 35.492188 25.863281 35.40625 25.902344 35.320312 25.902344 Z M 35.320312 25.902344 "/>
<path style=" stroke:none;fill-rule:nonzero;fill:rgb(0%,0%,0%);fill-opacity:1;" d="M 28.074219 23.574219 C 27.972656 23.574219 27.871094 23.515625 27.820312 23.417969 C 27.742188 23.277344 27.796875 23.101562 27.941406 23.027344 C 28.105469 22.941406 29.550781 22.144531 29.769531 20.585938 C 29.980469 19.09375 28.992188 17.5625 27.421875 16.945312 C 27.273438 16.890625 27.203125 16.722656 27.257812 16.574219 C 27.316406 16.421875 27.484375 16.351562 27.632812 16.410156 C 28.519531 16.757812 29.277344 17.375 29.769531 18.152344 C 30.257812 18.925781 30.460938 19.820312 30.34375 20.667969 C 30.234375 21.453125 29.863281 22.160156 29.242188 22.773438 C 28.789062 23.226562 28.335938 23.476562 28.210938 23.542969 C 28.167969 23.5625 28.121094 23.574219 28.074219 23.574219 Z M 28.074219 23.574219 "/>
<path style=" stroke:none;fill-rule:nonzero;fill:rgb(0%,0%,0%);fill-opacity:1;" d="M 32.113281 32.519531 C 31.953125 32.519531 31.796875 32.507812 31.636719 32.484375 C 30.851562 32.375 30.144531 32.007812 29.53125 31.386719 C 29.078125 30.929688 28.828125 30.480469 28.757812 30.351562 C 28.683594 30.210938 28.738281 30.035156 28.882812 29.960938 C 29.023438 29.886719 29.199219 29.941406 29.273438 30.082031 C 29.359375 30.246094 30.15625 31.695312 31.714844 31.914062 C 33.207031 32.121094 34.738281 31.136719 35.355469 29.566406 C 35.414062 29.417969 35.578125 29.34375 35.730469 29.402344 C 35.878906 29.460938 35.949219 29.628906 35.890625 29.777344 C 35.542969 30.664062 34.925781 31.421875 34.148438 31.914062 C 33.519531 32.3125 32.8125 32.519531 32.113281 32.519531 Z M 32.113281 32.519531 "/>
<path style=" stroke:none;fill-rule:nonzero;fill:rgb(0%,0%,0%);fill-opacity:1;" d="M 38.113281 30.855469 C 38 30.855469 37.894531 30.792969 37.847656 30.683594 C 37.464844 29.808594 37.367188 28.835938 37.574219 27.941406 C 37.773438 27.050781 38.261719 26.273438 38.945312 25.757812 C 39.570312 25.285156 40.324219 25.046875 41.1875 25.046875 C 41.195312 25.046875 41.203125 25.046875 41.210938 25.046875 C 41.855469 25.046875 42.347656 25.191406 42.484375 25.234375 C 42.636719 25.28125 42.722656 25.445312 42.675781 25.597656 C 42.625 25.746094 42.464844 25.832031 42.3125 25.785156 C 42.136719 25.730469 40.550781 25.273438 39.289062 26.21875 C 38.085938 27.128906 37.703125 28.90625 38.375 30.453125 C 38.441406 30.601562 38.375 30.769531 38.226562 30.835938 C 38.1875 30.851562 38.148438 30.855469 38.113281 30.855469 Z M 38.113281 30.855469 "/>
<path style=" stroke:none;fill-rule:nonzero;fill:rgb(0%,0%,0%);fill-opacity:1;" d="M 37.425781 33.574219 C 37.421875 33.574219 37.410156 33.574219 37.402344 33.574219 C 36.761719 33.570312 36.265625 33.429688 36.128906 33.386719 C 35.980469 33.339844 35.890625 33.175781 35.941406 33.023438 C 35.988281 32.871094 36.152344 32.785156 36.300781 32.835938 C 36.480469 32.890625 38.0625 33.347656 39.324219 32.398438 C 40.527344 31.492188 40.914062 29.710938 40.238281 28.167969 C 40.171875 28.019531 40.242188 27.851562 40.386719 27.785156 C 40.535156 27.71875 40.703125 27.789062 40.769531 27.933594 C 41.148438 28.808594 41.25 29.78125 41.046875 30.675781 C 40.84375 31.566406 40.355469 32.34375 39.671875 32.859375 C 39.042969 33.335938 38.289062 33.574219 37.425781 33.574219 Z M 37.425781 33.574219 "/>
<path style=" stroke:none;fill-rule:nonzero;fill:rgb(0%,0%,0%);fill-opacity:1;" d="M 29.1875 39.96875 C 28.632812 39.96875 28.070312 39.835938 27.515625 39.5625 C 26.9375 39.285156 26.550781 38.941406 26.445312 38.84375 C 26.328125 38.734375 26.324219 38.550781 26.429688 38.4375 C 26.539062 38.320312 26.722656 38.3125 26.839844 38.421875 C 26.972656 38.546875 28.207031 39.644531 29.75 39.332031 C 31.230469 39.035156 32.34375 37.597656 32.402344 35.910156 C 32.40625 35.753906 32.542969 35.625 32.703125 35.632812 C 32.859375 35.636719 32.984375 35.773438 32.980469 35.933594 C 32.949219 36.886719 32.617188 37.804688 32.046875 38.527344 C 31.480469 39.246094 30.703125 39.734375 29.863281 39.902344 C 29.640625 39.949219 29.414062 39.96875 29.1875 39.96875 Z M 29.1875 39.96875 "/>
<path style=" stroke:none;fill-rule:nonzero;fill:rgb(0%,0%,0%);fill-opacity:1;" d="M 29.273438 37.9375 C 29.273438 37.9375 29.265625 37.9375 29.265625 37.9375 C 29.109375 37.933594 28.984375 37.796875 28.988281 37.636719 C 29.019531 36.683594 29.351562 35.765625 29.921875 35.042969 C 30.488281 34.324219 31.265625 33.835938 32.101562 33.667969 C 32.878906 33.511719 33.671875 33.625 34.453125 34.003906 C 35.03125 34.285156 35.417969 34.625 35.523438 34.722656 C 35.640625 34.832031 35.648438 35.015625 35.539062 35.132812 C 35.429688 35.25 35.246094 35.253906 35.132812 35.144531 C 34.996094 35.019531 33.765625 33.917969 32.21875 34.234375 C 30.742188 34.535156 29.625 35.972656 29.566406 37.65625 C 29.558594 37.816406 29.429688 37.9375 29.273438 37.9375 Z M 29.273438 37.9375 "/>
<path style=" stroke:none;fill-rule:nonzero;fill:rgb(0%,0%,0%);fill-opacity:1;" d="M 35.585938 42.054688 C 35.511719 42.054688 35.433594 42.023438 35.375 41.964844 C 34.726562 41.265625 34.308594 40.378906 34.203125 39.46875 C 34.097656 38.5625 34.296875 37.667969 34.769531 36.953125 C 35.207031 36.296875 35.847656 35.816406 36.671875 35.53125 C 37.277344 35.320312 37.792969 35.289062 37.9375 35.28125 C 38.09375 35.273438 38.230469 35.402344 38.234375 35.5625 C 38.242188 35.71875 38.117188 35.855469 37.957031 35.859375 C 37.773438 35.867188 36.125 35.960938 35.253906 37.273438 C 34.421875 38.53125 34.648438 40.335938 35.796875 41.570312 C 35.90625 41.6875 35.902344 41.871094 35.785156 41.980469 C 35.726562 42.03125 35.65625 42.054688 35.585938 42.054688 Z M 35.585938 42.054688 "/>
<path style=" stroke:none;fill-rule:nonzero;fill:rgb(0%,0%,0%);fill-opacity:1;" d="M 28.578125 35.964844 C 28.542969 35.964844 28.507812 35.957031 28.472656 35.949219 C 27.585938 35.597656 26.828125 34.980469 26.335938 34.203125 C 25.851562 33.429688 25.644531 32.535156 25.765625 31.691406 C 25.875 30.90625 26.242188 30.195312 26.863281 29.582031 C 27.320312 29.132812 27.769531 28.878906 27.898438 28.8125 C 28.039062 28.738281 28.214844 28.792969 28.289062 28.933594 C 28.363281 29.078125 28.308594 29.25 28.167969 29.324219 C 28.003906 29.414062 26.554688 30.207031 26.335938 31.769531 C 26.128906 33.261719 27.113281 34.792969 28.683594 35.40625 C 28.832031 35.464844 28.90625 35.632812 28.847656 35.78125 C 28.800781 35.894531 28.695312 35.964844 28.578125 35.964844 Z M 28.578125 35.964844 "/>
<path style=" stroke:none;fill-rule:nonzero;fill:rgb(0%,0%,0%);fill-opacity:1;" d="M 29.265625 45.796875 C 29.234375 45.796875 29.203125 45.796875 29.164062 45.796875 C 28.25 45.769531 27.394531 45.445312 26.757812 44.878906 C 26.164062 44.351562 25.78125 43.652344 25.613281 42.796875 C 25.492188 42.164062 25.535156 41.648438 25.546875 41.507812 C 25.566406 41.351562 25.707031 41.234375 25.867188 41.25 C 26.023438 41.265625 26.140625 41.410156 26.125 41.570312 C 26.105469 41.753906 25.964844 43.398438 27.140625 44.449219 C 28.265625 45.453125 30.089844 45.476562 31.472656 44.515625 C 31.605469 44.421875 31.785156 44.453125 31.875 44.585938 C 31.964844 44.71875 31.933594 44.898438 31.800781 44.988281 C 31.046875 45.511719 30.152344 45.796875 29.265625 45.796875 Z M 29.265625 45.796875 "/>
<path style=" stroke:none;fill-rule:nonzero;fill:rgb(0%,0%,0%);fill-opacity:1;" d="M 38.042969 38.761719 C 37.859375 38.761719 37.675781 38.746094 37.484375 38.722656 C 36.851562 38.640625 36.375 38.441406 36.242188 38.382812 C 36.097656 38.3125 36.035156 38.144531 36.097656 37.996094 C 36.164062 37.851562 36.335938 37.789062 36.484375 37.851562 C 36.585938 37.902344 37.230469 38.179688 38.035156 38.179688 C 38.503906 38.179688 39.027344 38.085938 39.53125 37.796875 C 40.839844 37.042969 41.4375 35.324219 40.960938 33.707031 C 40.914062 33.554688 41 33.394531 41.15625 33.347656 C 41.308594 33.300781 41.46875 33.390625 41.515625 33.542969 C 41.785156 34.453125 41.761719 35.433594 41.453125 36.300781 C 41.144531 37.160156 40.566406 37.871094 39.824219 38.296875 C 39.289062 38.605469 38.691406 38.761719 38.042969 38.761719 Z M 38.042969 38.761719 "/>
<path style=" stroke:none;fill-rule:nonzero;fill:rgb(0%,0%,0%);fill-opacity:1;" d="M 41.996094 27.917969 C 41.808594 27.917969 41.667969 27.90625 41.605469 27.898438 C 41.445312 27.882812 41.328125 27.742188 41.347656 27.582031 C 41.363281 27.421875 41.503906 27.308594 41.667969 27.324219 C 41.851562 27.34375 43.496094 27.484375 44.542969 26.304688 C 45.546875 25.179688 45.574219 23.359375 44.609375 21.976562 C 44.519531 21.84375 44.550781 21.664062 44.683594 21.574219 C 44.816406 21.484375 44.996094 21.515625 45.085938 21.644531 C 45.632812 22.425781 45.917969 23.363281 45.894531 24.28125 C 45.871094 25.195312 45.546875 26.050781 44.980469 26.6875 C 44.453125 27.28125 43.753906 27.664062 42.894531 27.828125 C 42.546875 27.898438 42.234375 27.917969 41.996094 27.917969 Z M 41.996094 27.917969 "/>
<path style=" stroke:none;fill-rule:nonzero;fill:rgb(0%,0%,0%);fill-opacity:1;" d="M 34.328125 45.496094 C 34.316406 45.496094 34.304688 45.496094 34.296875 45.496094 C 34.136719 45.476562 34.023438 45.335938 34.039062 45.175781 C 34.058594 44.988281 34.199219 43.347656 33.019531 42.296875 C 31.894531 41.296875 30.074219 41.265625 28.691406 42.230469 C 28.558594 42.320312 28.378906 42.289062 28.289062 42.160156 C 28.199219 42.027344 28.230469 41.847656 28.359375 41.753906 C 29.144531 41.210938 30.078125 40.921875 30.996094 40.945312 C 31.910156 40.96875 32.765625 41.296875 33.402344 41.863281 C 33.996094 42.390625 34.378906 43.089844 34.546875 43.945312 C 34.667969 44.578125 34.628906 45.089844 34.613281 45.234375 C 34.597656 45.386719 34.472656 45.496094 34.328125 45.496094 Z M 34.328125 45.496094 "/>
<path style=" stroke:none;fill-rule:nonzero;fill:rgb(0%,0%,0%);fill-opacity:1;" d="M 43.605469 24.027344 C 43.53125 24.027344 43.457031 23.996094 43.398438 23.941406 C 42.734375 23.261719 42.292969 22.386719 42.164062 21.476562 C 42.035156 20.570312 42.214844 19.671875 42.671875 18.949219 C 43.089844 18.277344 43.71875 17.78125 44.535156 17.476562 C 45.136719 17.25 45.648438 17.203125 45.792969 17.199219 C 45.949219 17.1875 46.085938 17.3125 46.097656 17.46875 C 46.105469 17.628906 45.984375 17.765625 45.824219 17.773438 C 45.640625 17.785156 43.996094 17.921875 43.15625 19.253906 C 42.355469 20.53125 42.628906 22.332031 43.808594 23.535156 C 43.921875 23.648438 43.921875 23.835938 43.804688 23.945312 C 43.753906 24 43.675781 24.027344 43.605469 24.027344 Z M 43.605469 24.027344 "/>
<path style=" stroke:none;fill-rule:nonzero;fill:rgb(0%,0%,0%);fill-opacity:1;" d="M 25.152344 6.773438 C 25 6.773438 24.871094 6.65625 24.863281 6.5 C 24.8125 5.550781 25.066406 4.605469 25.570312 3.835938 C 26.070312 3.074219 26.800781 2.515625 27.621094 2.273438 C 28.382812 2.050781 29.179688 2.09375 29.992188 2.40625 C 30.59375 2.632812 31.007812 2.941406 31.121094 3.027344 C 31.246094 3.128906 31.269531 3.308594 31.171875 3.433594 C 31.074219 3.558594 30.890625 3.582031 30.765625 3.484375 C 30.617188 3.371094 29.296875 2.382812 27.785156 2.828125 C 26.339844 3.257812 25.355469 4.789062 25.441406 6.46875 C 25.449219 6.628906 25.328125 6.765625 25.167969 6.773438 C 25.160156 6.773438 25.15625 6.773438 25.152344 6.773438 Z M 25.152344 6.773438 "/>
<path style=" stroke:none;fill-rule:nonzero;fill:rgb(0%,0%,0%);fill-opacity:1;" d="M 21.800781 2.886719 L 21.601562 2.917969 C 21.601562 2.917969 21.597656 2.917969 21.597656 2.917969 L 16.203125 3.726562 L 8.808594 7.277344 L 9.214844 10.582031 L 5.523438 11.121094 L 1.902344 22.066406 L 3.457031 23.808594 L 3.375 23.988281 L 3.578125 24 L 1.964844 25.945312 L 4.199219 31.640625 L 7.746094 33.789062 L 6.46875 35.375 L 10.757812 40.453125 L 10.769531 40.464844 L 12.40625 41.972656 L 12.398438 42.152344 L 12.4375 42.148438 L 12.566406 43.964844 L 16.359375 45.859375 L 21.144531 45.859375 L 23.609375 41.511719 L 23.609375 6.136719 Z M 12.640625 17.542969 L 13.691406 23.496094 L 13.496094 23.902344 L 4.636719 23.472656 Z M 13.167969 17.1875 L 18.058594 14.457031 L 14.121094 22.609375 Z M 13.945312 24.476562 L 13.984375 24.476562 L 18.390625 32.457031 L 13.742188 30.359375 L 13.628906 30.285156 Z M 19.269531 32.855469 L 14.621094 24.4375 L 23.03125 23.949219 L 23.03125 35.019531 L 19.386719 32.90625 Z M 23.035156 23.367188 L 14.347656 23.875 L 14.296875 23.582031 L 18.828125 14.195312 L 18.839844 14.171875 L 18.863281 14.085938 L 23.039062 13.851562 L 23.039062 23.367188 Z M 18.394531 13.609375 L 12.96875 16.632812 L 10.105469 10.8125 L 21.078125 3.898438 Z M 12.480469 16.945312 L 4.519531 22.835938 L 9.671875 11.234375 Z M 4.304688 24.035156 L 13.367188 24.476562 L 13.070312 29.921875 L 4.222656 24.128906 Z M 13.59375 30.925781 L 18.75 33.253906 L 20.066406 41.273438 L 13.011719 41.550781 Z M 20.648438 41.253906 L 19.390625 33.578125 L 23.035156 35.6875 L 23.035156 41.160156 Z M 23.035156 13.273438 L 19.023438 13.496094 L 21.6875 3.867188 L 23.03125 6.285156 L 23.03125 13.273438 Z M 16.378906 4.285156 L 20.324219 3.691406 L 9.765625 10.339844 L 9.433594 7.621094 Z M 5.960938 11.640625 L 9.058594 11.1875 L 3.71875 23.226562 L 2.554688 21.929688 Z M 4.667969 31.246094 L 2.628906 26.050781 L 3.851562 24.578125 L 12.710938 30.375 L 8.175781 33.371094 Z M 11.195312 40.066406 L 7.222656 35.367188 L 8.378906 33.929688 L 13.019531 30.863281 L 12.453125 41.222656 Z M 20.808594 45.285156 L 16.496094 45.285156 L 13.121094 43.597656 L 13.015625 42.128906 L 20.277344 41.847656 C 20.320312 41.867188 20.363281 41.878906 20.414062 41.878906 C 20.425781 41.878906 20.445312 41.878906 20.460938 41.875 C 20.5 41.867188 20.535156 41.855469 20.566406 41.835938 L 22.816406 41.746094 Z M 20.808594 45.285156 "/>
<path style=" stroke:none;fill-rule:nonzero;fill:rgb(0%,0%,0%);fill-opacity:1;" d="M 22.367188 3.363281 C 22.367188 3.953125 21.890625 4.429688 21.300781 4.429688 C 20.710938 4.429688 20.234375 3.953125 20.234375 3.363281 C 20.234375 2.773438 20.710938 2.296875 21.300781 2.296875 C 21.890625 2.296875 22.367188 2.773438 22.367188 3.363281 Z M 22.367188 3.363281 "/>
<path style=" stroke:none;fill-rule:nonzero;fill:rgb(0%,0%,0%);fill-opacity:1;" d="M 15.269531 23.941406 C 15.269531 24.601562 14.738281 25.136719 14.078125 25.136719 C 13.421875 25.136719 12.886719 24.601562 12.886719 23.941406 C 12.886719 23.285156 13.421875 22.75 14.078125 22.75 C 14.738281 22.75 15.269531 23.285156 15.269531 23.941406 Z M 15.269531 23.941406 "/>
<path style=" stroke:none;fill-rule:nonzero;fill:rgb(0%,0%,0%);fill-opacity:1;" d="M 13.914062 17.03125 C 13.914062 17.621094 13.433594 18.101562 12.84375 18.101562 C 12.253906 18.101562 11.777344 17.621094 11.777344 17.03125 C 11.777344 16.441406 12.253906 15.964844 12.84375 15.964844 C 13.433594 15.964844 13.914062 16.441406 13.914062 17.03125 Z M 13.914062 17.03125 "/>
<path style=" stroke:none;fill-rule:nonzero;fill:rgb(0%,0%,0%);fill-opacity:1;" d="M 19.695312 13.808594 C 19.695312 14.398438 19.214844 14.878906 18.625 14.878906 C 18.035156 14.878906 17.558594 14.398438 17.558594 13.808594 C 17.558594 13.21875 18.035156 12.742188 18.625 12.742188 C 19.214844 12.742188 19.695312 13.21875 19.695312 13.808594 Z M 19.695312 13.808594 "/>
<path style=" stroke:none;fill-rule:nonzero;fill:rgb(0%,0%,0%);fill-opacity:1;" d="M 10.777344 10.65625 C 10.777344 11.246094 10.296875 11.722656 9.707031 11.722656 C 9.117188 11.722656 8.640625 11.246094 8.640625 10.65625 C 8.640625 10.066406 9.117188 9.585938 9.707031 9.585938 C 10.296875 9.585938 10.777344 10.066406 10.777344 10.65625 Z M 10.777344 10.65625 "/>
<path style=" stroke:none;fill-rule:nonzero;fill:rgb(0%,0%,0%);fill-opacity:1;" d="M 14.429688 30.332031 C 14.429688 30.921875 13.953125 31.402344 13.363281 31.402344 C 12.773438 31.402344 12.296875 30.921875 12.296875 30.332031 C 12.296875 29.742188 12.773438 29.265625 13.363281 29.265625 C 13.953125 29.265625 14.429688 29.742188 14.429688 30.332031 Z M 14.429688 30.332031 "/>
<path style=" stroke:none;fill-rule:nonzero;fill:rgb(0%,0%,0%);fill-opacity:1;" d="M 20.0625 32.957031 C 20.0625 33.546875 19.585938 34.023438 18.996094 34.023438 C 18.40625 34.023438 17.925781 33.546875 17.925781 32.957031 C 17.925781 32.367188 18.40625 31.890625 18.996094 31.890625 C 19.585938 31.890625 20.0625 32.367188 20.0625 32.957031 Z M 20.0625 32.957031 "/>
<path style=" stroke:none;fill-rule:nonzero;fill:rgb(0%,0%,0%);fill-opacity:1;" d="M 21.539062 41.257812 C 21.539062 41.847656 21.058594 42.324219 20.46875 42.324219 C 19.878906 42.324219 19.402344 41.847656 19.402344 41.257812 C 19.402344 40.667969 19.878906 40.1875 20.46875 40.1875 C 21.058594 40.1875 21.539062 40.667969 21.539062 41.257812 Z M 21.539062 41.257812 "/>
<path style=" stroke:none;fill-rule:nonzero;fill:rgb(0%,0%,0%);fill-opacity:1;" d="M 13.789062 41.683594 C 13.789062 42.273438 13.3125 42.753906 12.722656 42.753906 C 12.132812 42.753906 11.65625 42.273438 11.65625 41.683594 C 11.65625 41.097656 12.132812 40.617188 12.722656 40.617188 C 13.3125 40.617188 13.789062 41.097656 13.789062 41.683594 Z M 13.789062 41.683594 "/>
<path style=" stroke:none;fill-rule:nonzero;fill:rgb(0%,0%,0%);fill-opacity:1;" d="M 5.054688 23.960938 C 5.054688 24.550781 4.578125 25.03125 3.984375 25.03125 C 3.394531 25.03125 2.917969 24.550781 2.917969 23.960938 C 2.917969 23.371094 3.394531 22.894531 3.984375 22.894531 C 4.578125 22.894531 5.054688 23.371094 5.054688 23.960938 Z M 5.054688 23.960938 "/>
<path style=" stroke:none;fill-rule:nonzero;fill:rgb(0%,0%,0%);fill-opacity:1;" d="M 9.25 33.710938 C 9.25 34.300781 8.769531 34.78125 8.179688 34.78125 C 7.589844 34.78125 7.113281 34.300781 7.113281 33.710938 C 7.113281 33.121094 7.589844 32.644531 8.179688 32.644531 C 8.769531 32.644531 9.25 33.121094 9.25 33.710938 Z M 9.25 33.710938 "/>
<path style=" stroke:none;fill-rule:nonzero;fill:rgb(0%,0%,0%);fill-opacity:1;" d="M 24.363281 23.585938 C 24.363281 24.175781 23.886719 24.65625 23.296875 24.65625 C 22.707031 24.65625 22.230469 24.175781 22.230469 23.585938 C 22.230469 22.996094 22.707031 22.519531 23.296875 22.519531 C 23.886719 22.519531 24.363281 22.996094 24.363281 23.585938 Z M 24.363281 23.585938 "/>
<path style=" stroke:none;fill-rule:nonzero;fill:rgb(0%,0%,0%);fill-opacity:1;" d="M 24.363281 13.519531 C 24.363281 14.109375 23.886719 14.589844 23.296875 14.589844 C 22.707031 14.589844 22.230469 14.109375 22.230469 13.519531 C 22.230469 12.929688 22.707031 12.453125 23.296875 12.453125 C 23.886719 12.453125 24.363281 12.929688 24.363281 13.519531 Z M 24.363281 13.519531 "/>
<path style=" stroke:none;fill-rule:nonzero;fill:rgb(0%,0%,0%);fill-opacity:1;" d="M 24.363281 35.273438 C 24.363281 35.863281 23.886719 36.339844 23.296875 36.339844 C 22.707031 36.339844 22.230469 35.863281 22.230469 35.273438 C 22.230469 34.683594 22.707031 34.203125 23.296875 34.203125 C 23.886719 34.203125 24.363281 34.683594 24.363281 35.273438 Z M 24.363281 35.273438 "/>
</g>
</svg>
