<svg width="16" height="16" viewBox="0 0 16 16" fill="none" xmlns="http://www.w3.org/2000/svg"><path d="M9.2 2.698C8.08142 2.69746 6.99138 3.05098 6.08603 3.7079 5.18067 4.36482 4.50647 5.29143 4.16 6.355L4.125 6.465H5.1L5.122 6.413c.36224-.91995 1.02541-1.69007 1.88141-2.18485.85599-.49477 1.85433-.68501 2.8323-.53972C10.8137 3.83373 11.7136 4.30599 12.3888 5.02825c.6752.72226 1.0858 1.65192 1.1649 2.63744C13.6329 8.65122 13.3759 9.63449 12.8246 10.4553c-.5512.8207-1.3642 1.4305-2.3065 1.7301C9.57588 12.4849 8.55997 12.4564 7.63598 12.1046 6.712 11.7528 5.93442 11.0983 5.43 10.248L5.38 10.16H4.358L4.418 10.283C4.82628 11.1394 5.45687 11.8707 6.24399 12.4004 7.03111 12.9302 7.94594 13.239 8.89309 13.2948 9.84023 13.3506 10.785 13.1513 11.6289 12.7176c.8438-.4337 1.5559-1.0858 2.0619-1.8884s.7874-1.72629.8149-2.67468C14.5331 7.20614 14.3057 6.26775 13.847 5.43721c-.4587-.83053-1.1319-1.5228-1.9492-2.00459C11.0804 2.95082 10.1488 2.69713 9.2 2.698z" fill="#000"/><path d="M9.447 7.27204 7.59 5.41504l-.617.617 1.08 1.083H0L.52 7.98704H9.15L9.447 7.27204zM9.435 11.213 8.817 10.595l1.08-1.08196H1.425l-.518-.875H10.995L11.293 9.35504 9.435 11.212V11.213z" fill="#000"/></svg>