<svg width="14" height="14" viewBox="0 0 14 14" fill="none" xmlns="http://www.w3.org/2000/svg"><path fill-rule="evenodd" clip-rule="evenodd" d="M3.3888 1.59545C4.45771.881218 5.71442.5 7 .5c1.72332.001919 3.3755.68735 4.5941 1.90592C12.8126 3.6245 13.4981 5.27668 13.5 7c0 1.28558-.3812 2.54228-1.0954 3.6112-.7143 1.0689-1.7294 1.902-2.91716 2.394C8.29972 13.4972 6.99279 13.6259 5.73191 13.3751c-1.26087-.2508-2.41906-.8699-3.3281-1.7789C1.49477 10.6872.875702 9.52896.624899 8.26809.374095 7.00721.502816 5.70028.994786 4.51256 1.48676 3.32484 2.31988 2.30968 3.3888 1.59545zM7.49722 6.49724 11.436 6.47524 11.4415 7.47524 7.50272 7.49723 7.52472 11.436 6.52472 11.4415 6.50272 7.50274 2.56397 7.52473 2.55847 6.52474 6.49722 6.50274 6.47522 2.56399 7.47522 2.55849 7.49722 6.49724z" fill="#000"/></svg>