<svg width="16" height="16" viewBox="0 0 16 16" fill="none" xmlns="http://www.w3.org/2000/svg"><path fill-rule="evenodd" clip-rule="evenodd" d="M1.5 2.49993l.5-.5H9.5v1h-7V12.9999h8v1H2l-.5-.5V2.49993z" fill="#000"/><path fill-rule="evenodd" clip-rule="evenodd" d="M8 5.24993H3.5v-1H8v1z" fill="#000"/><path fill-rule="evenodd" clip-rule="evenodd" d="M8.5 7.24993h-5v-1h5v1z" fill="#000"/><path fill-rule="evenodd" clip-rule="evenodd" d="M7 9.24993H3.5v-1H7v1z" fill="#000"/><path fill-rule="evenodd" clip-rule="evenodd" d="M9.87319 2.75594C9.59266 2.93107 9.34448 3.15662 9.14216 3.42316c-.34698.4571-.54158 1.01167-.55631 1.58535C8.57112 5.5822 8.737 6.14602 9.06006 6.62033s.78698.83513 1.32624 1.0315L10.7152 8.12152 10.7165 13.4999h1.2127L11.9306 8.12152 12.2595 7.65183C12.7987 7.45546 13.2626 7.09464 13.5857 6.62033 13.9087 6.14602 14.0746 5.5822 14.0599 5.00851 14.0452 4.43483 13.8506 3.88027 13.5036 3.42316 13.3012 3.15662 13.0531 2.93107 12.7725 2.75595L12.7715 4.88849l-.5.49976H10.3742L9.87425 4.8885 9.87319 2.75594zM8.34564 2.81854C8.81933 2.19451 9.47711 1.73508 10.226 1.50513L10.8728 1.98286 10.874 4.38825H11.7717L11.7729 1.98286 12.4197 1.50513C13.1686 1.73508 13.8264 2.19451 14.3001 2.81854 14.7738 3.44257 15.0394 4.19965 15.0596 4.98285 15.0797 5.76604 14.8532 6.53575 14.4122 7.18327 14.0383 7.73219 13.5262 8.16977 12.9305 8.45362L12.9291 14.0001l-.5.4998H10.2166L9.71663 14.0001 9.71527 8.45362C9.11951 8.16977 8.60745 7.73219 8.23357 7.18327 7.79253 6.53575 7.56607 5.76604 7.58618 4.98285 7.60629 4.19965 7.87196 3.44257 8.34564 2.81854z" fill="#000"/></svg>