<svg width="16" height="16" viewBox="0 0 16 16" fill="none" xmlns="http://www.w3.org/2000/svg"><path d="M14 10.793h-.85V7.363H8.46V5.183H9.3l.5-.5V2l-.5-.5H6.605l-.5.5V4.683l.5.5H7.46v2.18H2.85v3.43H2l-.5.5V14l.5.5H4.697l.5-.5V11.293l-.5-.5H3.85V8.363H7.46v2.43H6.605l-.5.5V14l.5.5H9.3l.5-.5V11.293l-.5-.5H8.46V8.363h3.692v2.43h-.847l-.5.5V14l.5.5H14l.5-.5V11.293l-.5-.5zM7.105 2.5H8.8V4.195H7.105V2.5zm-2.908 11H2.5V11.793H4.195L4.197 13.5zm4.603.0H7.105V11.793H8.8V13.5zm4.7.0H11.805V11.793H13.5V13.5z" fill="#000"/></svg>