<svg width="16" height="16" viewBox="0 0 16 16" fill="none" xmlns="http://www.w3.org/2000/svg"><path d="M8.20993 1.503C8.16793 1.5 8.12693 1.5 8.08493 1.5H8.00293c-1.72391.0-3.37721.68482-4.59619 1.90381C2.18775 4.62279 1.50293 6.27609 1.50293 8s.68482 3.3772 1.90381 4.5962C4.62572 13.8152 6.27902 14.5 8.00293 14.5H8.08493C9.78713 14.4837 11.415 13.8002 12.6187 12.5965c1.2037-1.2036 1.8872-2.83149 1.9036-4.53369C14.5386 6.36061 13.8866 4.71991 12.7063 3.4933 11.5259 2.26669 9.9115 1.55207 8.20993 1.503zM12.9849 5.668h-1.285c-.1807-.8657-.5106-1.69338-.975-2.446.9857.56457 1.7739 1.41847 2.258 2.446H12.9849zM8.49993 2.561c.93.276 1.75897 1.457 2.17497 3.107H8.49993V2.561zM7.49993 2.622V5.668h-2.004c.39-1.548 1.144-2.685 2.004-3.046zm-1.965.464c-.51453.78598-.87618 1.66196-1.066 2.582h-1.447c.52626-1.11709 1.41078-2.02525 2.513-2.582zm-2.556 7.15h1.469C4.63296 11.1892 4.99998 12.0978 5.52893 12.912c-1.13142-.5731-2.03164-1.5175-2.55-2.675V10.236zm4.521 3.144C6.61993 13.013 5.85393 11.84 5.47293 10.238h2.027V13.38zM8.49993 13.44V10.238H10.6969C10.2909 11.94 9.44993 13.161 8.49993 13.44zM10.7309 12.775C11.2092 11.9948 11.5448 11.1358 11.7219 10.238h1.305c-.4779 1.0673-1.2817 1.9559-2.296 2.538V12.775zM2.64293 9.237C2.44852 8.39077 2.4564 7.51062 2.66593 6.668H13.3409C13.5509 7.511 13.5579 8.391 13.3639 9.237H2.64393 2.64293z" fill="#000"/><path d="M6.23604 8.16501H6.22604l-.183-.78H5.66104L5.48304 8.17101H5.47304L5.30704 7.38501H4.91504L5.23504 8.61201h.418l.192-.715H5.85904l.191.715h.418L6.78804 7.38501H6.39604l-.16.78zm1.941.0H8.16604l-.182-.78h-.383L7.42404 8.17101H7.41404L7.24804 7.38501H6.85604l.32 1.227H7.59404l.192-.715H7.79904l.192.715H8.40904l.32-1.227H8.33704l-.16.78zm1.93996.0H10.107l-.18196-.78H9.54204L9.36504 8.17101H9.35504L9.18904 7.38501H8.79704L9.11604 8.61201H9.53504L9.72604 7.89701H9.74004l.192.715H10.35l.32-1.227H10.278l-.16.78H10.117zM10.881 8.22201C10.8537 8.22145 10.8266 8.22648 10.8013 8.2368S10.7531 8.2625 10.734 8.28201C10.7143 8.30074 10.6988 8.32343 10.6884 8.34859 10.6781 8.37376 10.6732 8.40082 10.674 8.42801 10.6733 8.45518 10.6783 8.48221 10.6886 8.50735 10.6989 8.53249 10.7144 8.5552 10.734 8.57401 10.753 8.59375 10.7759 8.60935 10.8012 8.61985 10.8265 8.63034 10.8537 8.6355 10.881 8.63501 10.917 8.63501 10.952 8.62501 10.983 8.60701 11.0138 8.5885 11.0395 8.56275 11.058 8.53201 11.075 8.50472 11.0851 8.47375 11.0875 8.44172 11.09 8.40969 11.0847 8.37755 11.072 8.34801 11.0612 8.32296 11.0452 8.30048 11.025 8.28201 11.0063 8.26287 10.9839 8.2477 10.9591 8.23739 10.9344 8.22708 10.9078 8.22185 10.881 8.22201z" fill="#000"/></svg>