<svg width="16" height="16" viewBox="0 0 16 16" fill="none" xmlns="http://www.w3.org/2000/svg"><path d="M9.42259 5.20746l1.37251-.84L10.7576 5.97496H11.5551L11.5176 4.36746l1.375.84.3925-.6925L11.8701 3.74746l1.3075-.7075L13.2851 2.97996l-.3925-.69-1.375.84L11.5551 1.52246H10.7576L10.7951 3.12996l-1.37251-.84-.395.6925 1.41751.765L9.02759 4.51496l.395.6925z" fill="#000"/><path d="M13.6526 6.97496 12.9601 6.89246l-2.0925 1.6075L10.7451 8.34996 7.89259 7.71246 5.17009 7.69996l-.3225.1175-1.7 1.4325-.3975-.625L1.90259 9.15746 4.94259 14 5.79009 13.47l-.29-.455.4325-.33H10.6376L11.0201 12.5l3.3625-3.97754v-.6375l-.73-.91zm-3.25 4.71004H5.76759L5.46259 11.7875l-.5.3775-1.285-2.05 1.67-1.41504h2.375L10.1301 9.23246V9.45246H7.94009V10.4525H10.6376l.5-.50004V9.54496l2.045-1.5625L13.3526 8.19246l-2.95 3.49254z" fill="#000"/></svg>