<svg width="16" height="16" viewBox="0 0 16 16" fill="none" xmlns="http://www.w3.org/2000/svg"><path d="M14 2.97998H2l-.5.5V13.447l.5.5H14l.5-.5V3.47998l-.5-.5zm-.5 1v4.672l-2-1.637L10.845 7.03498l-1.27 1.17-1.357-1L7.6 7.22498 4.1 10.15 2.5 9.04998v-5.07h11zM2.5 12.947V10.27L3.825 11.195 4.43 11.168 7.938 8.24998l1.375 1L9.947 9.21498l1.25-1.158 2.303 1.886V12.943L2.5 12.948V12.947z" fill="#000"/><path d="M4.77002 8.04004C5.03524 8.04004 5.28959 7.93468 5.47713 7.74715 5.66466 7.55961 5.77002 7.30526 5.77002 7.04004c0-.26522-.10536-.51957-.29289-.70711-.18754-.18753-.44189-.29289-.70711-.29289-.265219999999999.0-.51957.10536-.70711.29289C3.87538 6.52047 3.77002 6.77482 3.77002 7.04004 3.77002 7.30526 3.87538 7.55961 4.06291 7.74715 4.25045 7.93468 4.5048 8.04004 4.77002 8.04004z" fill="#000"/></svg>