<svg width="15" height="12" viewBox="0 0 15 12" fill="none" xmlns="http://www.w3.org/2000/svg"><path d="M12.0951 8.14753l2.155-2.1475-2.1475-2.1475L11.3951 4.56003 12.3276 5.50003H8.91755C8.84671 5.12553 8.69576 4.77077 8.47506 4.46003l2.36754-2.46L10.8651 3.32753 11.8651 3.31003 11.8101.280029 8.77505.337529 8.79255 1.33753 10.1226 1.31503 7.75006 3.76753C7.38378 3.52814 6.96416 3.38271 6.5283 3.34411 6.09244 3.30551 5.65378 3.37492 5.25114 3.54621c-.40265.17129-.75687.43918-1.03133.77996-.27447.34078-.46071.74396-.54226 1.17386H3.09256C2.97379 5.14278 2.73175 4.83947 2.40976 4.6444s-.7029-.26916-1.07453-.20901C.963598 4.49555.62551 4.68601.381499 4.9727.137487 5.25938.00348473 5.62356.00348473 6.00003.00348473 6.3765.137487 6.74068.381499 7.02736.62551 7.31404.963598 7.50451 1.33523 7.56467 1.70686 7.62482 2.08777 7.55073 2.40976 7.35566 2.73175 7.16059 2.97379 6.85728 3.09256 6.50003h.58499c.08155.4299.26779.83307.54226 1.17386C4.49427 8.01467 4.84849 8.28256 5.25114 8.45385 5.65378 8.62514 6.09244 8.69455 6.5283 8.65595 6.96416 8.61735 7.38378 8.47192 7.75006 8.23253L10.1176 10.6875 8.78756 10.665 8.77006 11.665 11.8051 11.7225 11.8601 8.68753 10.8601 8.67003 10.8426 10 8.47506 7.54003C8.69576 7.22929 8.84671 6.87453 8.91755 6.50003H12.3276l-.94.94.7075.7075zM1.59505 6.58503C1.47914 6.58602 1.36555 6.55255 1.26869 6.48888 1.17184 6.4252 1.09608 6.33419 1.05103 6.22739 1.00599 6.12058.993687 6.0028 1.01569 5.889 1.0377 5.77519 1.09301 5.67049 1.17463 5.58817 1.25624 5.50586 1.36046 5.44964 1.47408 5.42666 1.58769 5.40368 1.70557 5.41497 1.81275 5.4591 1.91994 5.50322 2.0116 5.5782 2.07611 5.67451 2.14061 5.77082 2.17505 5.88412 2.17505 6.00003 2.17506 6.15475 2.11377 6.30317 2.0046 6.41281 1.89543 6.52244 1.74727 6.58437 1.59255 6.58503H1.59505zm3.035-.585C4.63006 5.66963 4.72806 5.34665 4.91167 5.07197 5.09529 4.79728 5.35625 4.58324 5.66155 4.45691 5.96685 4.33059 6.30276 4.29766 6.62678 4.3623 6.95079 4.42694 7.24835 4.58624 7.48181 4.82005c.23345.2338.392309999999999.5316.45646.85571C8.00243 5.99988 7.969 6.33574 7.84222 6.64085 7.71543 6.94595 7.501 7.2066 7.22604 7.3898s-.59808.28072-.92848.28023C5.85508 7.66937 5.43095 7.49313 5.1183 7.18001c-.31264-.31311-.48825-.7375-.48825-1.17998z" fill="#000"/></svg>