<svg width="16" height="16" viewBox="0 0 16 16" fill="none" xmlns="http://www.w3.org/2000/svg"><path fill-rule="evenodd" clip-rule="evenodd" d="M7.99748 1.48769c-3.589.0-6.5 2.98375-6.5 6.665C1.48766 9.53847 1.91082 10.8927 2.70788 12.0264c.79707 1.1336 1.92825 1.9901 3.2356 2.4498C6.26848 14.5372 6.38698 14.3314 6.38698 14.1549 6.38698 13.9967 6.38148 13.5777 6.37823 13.0214 4.57023 13.4242 4.18873 12.1279 4.18873 12.1279c-.2955-.7697-.72175-.975-.72175-.975C2.87673 10.7394 3.51173 10.7477 3.51173 10.7477 3.71918 10.7784 3.91682 10.8562 4.08942 10.9754 4.26202 11.0945 4.40496 11.2516 4.50723 11.4347 5.08698 12.4529 6.02848 12.1597 6.39898 11.9884c.0286900000000001-.3362.17481-.6516.41275-.891C5.36823 10.9294 3.84998 10.3577 3.84998 7.80369 3.83935 7.14454 4.07833 6.50575 4.51898 6.01544 4.32055 5.43999 4.34327 4.81131 4.58273 4.25169c0 0 .54575-.17925 1.78725.68325 1.06427-.29934 2.19048-.29934 3.25475.0 1.24077-.8625 1.78547-.68325 1.78547-.68325.24.55946.2631 1.1882.0648 1.76375C11.9157 6.50566 12.1545 7.14458 12.1432 7.80369c0 2.56021-1.5197 3.12501-2.96772 3.28871C9.33133 11.2558 9.45114 11.4501 9.52715 11.6627 9.60316 11.8753 9.63368 12.1015 9.61673 12.3267 9.61673 13.2177 9.60873 13.9364 9.60873 14.1549 9.60873 14.3332 9.72573 14.5404 10.0557 14.4754c1.3065-.4604 2.4366-1.317 3.233-2.4505C14.085 10.8915 14.5077 9.53785 14.498 8.15269c0-3.68125-2.9105-6.665-6.50052-6.665z" fill="#000"/><path d="M2.99998 7.27144C2.99998 7.29369 3.00148 7.31569 3.00173 7.33819 3.00173 7.31194 2.99998 7.28569 3.00023 7.25969L2.99998 7.27144z" fill="#000"/><path d="M14.5 7.27144C14.5 7.25344 14.4987 7.23619 14.4987 7.21844c0 .0452500000000002.0.0902500000000002.0.1355C14.4982 7.32619 14.5 7.29994 14.5 7.27144z" fill="#000"/><path d="M14.5 7.18294C14.5 7.16294 14.498 7.14294 14.4975 7.12294 14.4975 7.15469 14.4997 7.18644 14.5 7.21844 14.4985 7.20644 14.5 7.19494 14.5 7.18294z" fill="#000"/></svg>