<svg width="16" height="16" viewBox="0 0 16 16" fill="none" xmlns="http://www.w3.org/2000/svg"><path d="M6.08181 8.43933c0-.41347.30502-.75239.69138-.75239C7.15955 7.68694 7.47135 8.02586 7.46457 8.43933 7.46457 8.8528 7.15955 9.19171 6.77319 9.19171 6.39361 9.19171 6.08181 8.8528 6.08181 8.43933z" fill="#000"/><path d="M8.55587 8.43933C8.55587 8.02586 8.86089 7.68694 9.24725 7.68694S9.93863 8.02586 9.93863 8.43933 9.63361 9.19171 9.24725 9.19171C8.86767 9.19171 8.55587 8.8528 8.55587 8.43933z" fill="#000"/><path fill-rule="evenodd" clip-rule="evenodd" d="M3.45863 2H12.5415c.7659.0 1.3895.6236 1.3895 1.39632V15.5565l-1.4573-1.2879-.8202-.7591L10.7859 12.7028 11.1452 13.9568H3.45863c-.76594.0-1.38954-.6236-1.38954-1.3963V3.39632C2.06909 2.6236 2.69269 2 3.45863 2zm6.01908 8.3033C9.68106 10.5609 9.92508 10.8524 9.92508 10.8524 11.4231 10.8049 11.9992 9.82209 11.9992 9.82209 11.9992 7.6395 11.0232 5.87038 11.0232 5.87038 10.0471 5.13833 9.11847 5.15866 9.11847 5.15866L9.02357 5.26711C10.1759 5.61958 10.7114 6.12795 10.7114 6.12795c-.705-.38636-1.39637-.57615-2.0403-.65071C8.18307 5.42301 7.71537 5.43657 7.3019 5.4908 7.26639 5.4908 7.23605 5.49596 7.20186 5.50178 7.19689 5.50263 7.19183 5.50349 7.18667 5.50435c-.23724.02034-.81339.10845-1.53867.42703C5.39721 6.04661 5.24809 6.12795 5.24809 6.12795S5.81068 5.59247 7.03077 5.24L6.96298 5.15866S6.03436 5.13833 5.0583 5.87038c0 0-.97607 1.76912-.97607 3.95171.0.0.56937.982810000000001 2.06736 1.03031.0.0.2508-.305.45415-.5626C5.7429 10.0322 5.41754 9.48996 5.41754 9.48996S5.48533 9.53741 5.60734 9.60519C5.61411 9.61197 5.62089 9.61875 5.63445 9.62552 5.64462 9.6323 5.65478 9.63739 5.66495 9.64247 5.67512 9.64755 5.68529 9.65264 5.69545 9.65942 5.86491 9.75431 6.03436 9.82887 6.19026 9.88988 6.46817 9.99833 6.80031 10.1068 7.18667 10.1813 7.69503 10.2762 8.29152 10.3101 8.94223 10.1881 9.26081 10.1339 9.58616 10.039 9.92508 9.89665 10.1623 9.80854 10.4267 9.67975 10.7046 9.49674 10.7046 9.49674 10.3657 10.0526 9.47771 10.3033z" fill="#000"/></svg>