<svg width="16" height="16" viewBox="0 0 16 16" fill="none" xmlns="http://www.w3.org/2000/svg"><path d="M7.125 2.5l-.65 1H3v9H5.9L5.725 13.5H2.5L2 13V3l.5-.5H7.125zm3.15.0H13.5L14 3V13l-.5.5H8.875l.65-1H13v-9H10.1L10.275 2.5z" fill="#000"/><path d="M7.15 9.49998H4.25l-.425-.775L9.025.724976l.9.375004-1.075 5.4h2.9L12.175 7.27498 6.975 15.275l-.9-.375L7.15 9.49998zm-3.425-4.925c.0928299999999998.0.18185-.03688.24749-.10252C4.03813 4.40683 4.075 4.3178 4.075 4.22498 4.075 4.13215 4.03813 4.04313 3.97249 3.97749 3.90685 3.91185 3.81783 3.87498 3.725 3.87498c-.0928300000000002.0-.18185.03687-.24749.10251C3.41187 4.04313 3.375 4.13215 3.375 4.22498 3.375 4.3178 3.41187 4.40683 3.47751 4.47246 3.54315 4.5381 3.63217 4.57498 3.725 4.57498zm.925.0c.0928299999999993.0.18185-.03688.24749-.10252C4.96312 4.40683 5 4.3178 5 4.22498 5 4.13215 4.96312 4.04313 4.89749 3.97749 4.83185 3.91185 4.74283 3.87498 4.65 3.87498 4.55717 3.87498 4.46815 3.91185 4.40251 3.97749 4.33687 4.04313 4.3 4.13215 4.3 4.22498 4.3 4.3178 4.33687 4.40683 4.40251 4.47246 4.46815 4.5381 4.55717 4.57498 4.65 4.57498zm.925.0c.0928300000000002.0.18185-.03688.24749-.10252C5.88813 4.40683 5.925 4.3178 5.925 4.22498 5.925 4.13215 5.88813 4.04313 5.82249 3.97749 5.75685 3.91185 5.66783 3.87498 5.575 3.87498s-.18185.03687-.24749.10251C5.26188 4.04313 5.225 4.13215 5.225 4.22498 5.225 4.3178 5.26188 4.40683 5.32751 4.47246 5.39315 4.5381 5.48217 4.57498 5.575 4.57498z" fill="#000"/></svg>