<svg width="16" height="16" viewBox="0 0 16 16" fill="none" xmlns="http://www.w3.org/2000/svg"><path fill-rule="evenodd" clip-rule="evenodd" d="M12.116 2.57C11.143 2.244 9.732 2.024 8.125 2.024c-1.607.0-3.018.22-3.99.545-.492.164-.814.337-.992.478C3.11422 3.0693 3.08683 3.09335 3.061 3.119 3.081 3.188 3.139 3.277 3.286 3.387c.21.158.548.313 1.025.448.947.266 2.292.409 3.814.409s2.867-.143 3.814-.41C12.416 3.7 12.755 3.544 12.964 3.387c.147-.11.203999999999999-.2.225-.268C13.1632 3.09333 13.1358 3.06929 13.107 3.047 12.929 2.906 12.607 2.734 12.116 2.57zM4.02 4.818C3.68513 4.72778 3.36017 4.60416 3.05 4.449V6.206C3.05 6.285 3.089 6.412 3.3 6.583c.214.173.556.347 1.03.5.944.306 2.284.49 3.795.49 1.51.0 2.85-.184 3.794-.49.474-.153.817-.327 1.03-.5C13.161 6.412 13.2 6.285 13.2 6.206V4.45C12.8898 4.60516 12.5649 4.72878 12.23 4.819c-1.08.304-2.534.45-4.105.45S5.099 5.122 4.02 4.818zM14.25 6.206V3.05C14.25 1.917 11.508 1 8.125 1 4.742 1 2 1.917 2 3.049V12.95C2 14.083 4.742 15 8.125 15s6.125-.917 6.125-2.049V6.206zM13.2 7.654C12.92 7.811 12.598 7.944 12.25 8.057 11.167 8.407 9.707 8.597 8.125 8.597 6.543 8.597 5.083 8.407 4 8.057 3.67089 7.95414 3.35269 7.81916 3.05 7.654V9.366C3.05 9.444 3.089 9.571 3.3 9.742 3.514 9.915 3.856 10.09 4.33 10.243 5.274 10.549 6.614 10.732 8.125 10.732c1.51.0 2.85-.183 3.794-.488999999999999.474-.153.817-.328000000000001 1.03-.5C13.161 9.571 13.2 9.444 13.2 9.366V7.654zM4 11.215c-.32913-.1028-.64733-.2378-.95-.403V12.87C3.068 12.889 3.097 12.916 3.143 12.953c.178.141.5.314.992.478C5.107 13.756 6.518 13.976 8.125 13.976S11.143 13.756 12.115 13.431C12.607 13.267 12.929 13.094 13.107 12.953 13.1401 12.9278 13.1712 12.9 13.2 12.87V10.812C12.8973 10.9772 12.5791 11.1122 12.25 11.215 11.167 11.566 9.707 11.756 8.125 11.756 6.543 11.756 5.083 11.565 4 11.215zm9.224 1.624S13.224 12.841 13.22 12.845C13.2211 12.8428 13.2224 12.8408 13.224 12.839zm-10.198.0L3.03 12.845C3.02837 12.8432 3.02702 12.8412 3.026 12.839zm1.599-6.29C4.915 6.549 5.15 6.319 5.15 6.037 5.14922 5.96884 5.13502 5.90151 5.10821 5.83884 5.0814 5.77617 5.04251 5.7194 4.99376 5.67176 4.945 5.62412 4.88735 5.58655 4.82407 5.5612 4.7608 5.53585 4.69316 5.52321 4.625 5.524c-.29.0-.525.23-.525.513C4.1 6.319 4.335 6.549 4.625 6.549zM5.15 9.28C5.14922 9.34816 5.13502 9.41549 5.10821 9.47816 5.0814 9.54083 5.04251 9.5976 4.99376 9.64524 4.945 9.69288 4.88735 9.73045 4.82407 9.7558 4.7608 9.78115 4.69316 9.79379 4.625 9.793 4.55684 9.79379 4.4892 9.78115 4.42593 9.7558 4.36265 9.73045 4.305 9.69288 4.25624 9.64524 4.20749 9.5976 4.1686 9.54083 4.14179 9.47816 4.11498 9.41549 4.10078 9.34816 4.1 9.28 4.1 8.998 4.335 8.768 4.625 8.768S5.15 8.998 5.15 9.28zm-.525 3.671c.29.0.525-.23.525-.512000000000001C5.14816 12.3015 5.09184 12.1704 4.99341 12.0744 4.89498 11.9784 4.76248 11.9254 4.625 11.927 4.335 11.927 4.1 12.157 4.1 12.439 4.1 12.722 4.335 12.951 4.625 12.951z" fill="#000"/></svg>