<svg width="16" height="16" viewBox="0 0 16 16" fill="none" xmlns="http://www.w3.org/2000/svg"><path d="M5 8.5V7H4V8.5H5zm1.75.0h-1v-3h1v3zm1.75.0V4h-1V8.5h1z" fill="#000"/><path fill-rule="evenodd" clip-rule="evenodd" d="M3.72215 2.343c.82225-.54956 1.78901-.84293 2.778-.843C7.82583 1.50132 9.09683 2.02853 10.0342 2.96593c.9374.93739 1.4646 2.20839 1.466 3.53407C11.5 7.65331 11.1011 8.77111 10.3712 9.664l4.108 4.107L13.7722 14.479 9.66415 10.371C9.13991 10.797 8.53478 11.1123 7.88529 11.2979 7.23581 11.4835 6.55545 11.5355 5.88528 11.4509 5.21512 11.3663 4.56907 11.1467 3.98613 10.8054c-.58294-.3413-1.09067-.7971-1.49253-1.34006-.40187-.54294-.68953-1.1617-.84561-1.8189C1.4919 6.98924 1.47062 6.30722 1.58545 5.64156c.11482-.66565.36335-1.30113.73059-1.86807.36724-.56693.84557-1.05356 1.40611-1.43049zm2.778.157c-1.06087.0-2.07828.42143-2.82843 1.17157C2.92158 4.42172 2.50015 5.43913 2.50015 6.5s.42143 2.07828 1.17157 2.82843C4.42187 10.0786 5.43928 10.5 6.50015 10.5c1.06087.0 2.07828-.4214 2.82843-1.17157C10.0787 8.57828 10.5002 7.56087 10.5002 6.5s-.4215-2.07828-1.17162-2.82843C8.57843 2.92143 7.56102 2.5 6.50015 2.5z" fill="#000"/></svg>