<svg xmlns="http://www.w3.org/2000/svg" viewBox="0 0 64 64"><path d="M50 19.5H38v4H50v-4z"/><path d="M38 27.5H50v4H38v-4z"/><path d="M50 35.5H38v4H50v-4z"/><path fill-rule="evenodd" clip-rule="evenodd" d="M8 9 6 11V53l2 2H24c2.2208.0 4.1599 1.2066 5.1973 3h5.6054c1.0374-1.7934 2.9765-3 5.1973-3H56l2-2V11L56 9H40c-3.2712.0-6.1755 1.5707-8 3.999C30.1755 10.5707 27.2712 9 24 9H8zM30 19c0-3.3137-2.6863-6-6-6H10V51H24C26.2512 51 28.3287 51.7439 30 52.9993V19zm4 33.9993C35.6713 51.7439 37.7488 51 40 51H54V13H40c-3.3137.0-6 2.6863-6 6V52.9993z" fill="#000"/></svg>