<svg width="64" height="64" viewBox="0 0 64 64" fill="#e1523d" xmlns="http://www.w3.org/2000/svg"><path d="M37.69 20.8301l5.49-3.36L43.03 23.9001h3.19L46.07 17.4701l5.5 3.36 1.57-2.77-5.66-3.07 5.23-2.83.43-.24-1.57-2.76001-5.5 3.36001L46.22 6.09009H43.03L43.18 12.5201 37.69 9.16009 36.11 11.9301l5.67 3.06-5.67 3.07 1.58 2.77z" fill="#e1523d"/><path d="M54.61 27.9001 51.84 27.5701 43.47 34.0001 42.98 33.4001l-11.41-2.55L20.68 30.8001 19.39 31.2701l-6.8 5.73-1.59-2.5-3.39001 2.13L19.77 56.0001l3.39-2.12-1.16-1.82 1.73-1.32H42.55L44.08 50.0001l13.45-15.91v-2.55l-2.92-3.64zm-13 18.84H23.07L21.85 47.1501l-2 1.51-5.14-8.2 6.68-5.66h9.5l9.63 2.13V37.8101H31.76v4H42.55l2-2v-1.63l8.18-6.25.68.84-11.8 13.97z" fill="#e1523d"/></svg>