<svg width="64" height="64" viewBox="0 0 64 64" fill="#e1523d" xmlns="http://www.w3.org/2000/svg"><path d="M24.327 33.7573c0-1.6539 1.2201-3.0095 2.7655-3.0095 1.5455.0 2.7926 1.3556 2.7655 3.0095.0 1.6539-1.22 3.0096-2.7655 3.0096-1.5183.0-2.7655-1.3557-2.7655-3.0096z" fill="#e1523d"/><path d="M34.2232 33.7573c0-1.6539 1.2201-3.0095 2.7655-3.0095 1.5455.0 2.7656 1.3556 2.7656 3.0095s-1.2201 3.0096-2.7656 3.0096c-1.5183.0-2.7655-1.3557-2.7655-3.0096z" fill="#e1523d"/><path fill-rule="evenodd" clip-rule="evenodd" d="M13.8343 8H50.1657c3.0637.0 5.5581 2.4944 5.5581 5.5853V62.2259l-5.8293-5.1514-3.2806-3.0367-3.4705-3.2264 1.437 5.0159H13.8343c-3.0638.0-5.55818-2.4944-5.55818-5.5853V13.5853C8.27612 10.4944 10.7705 8 13.8343 8zM37.9106 41.2134C38.724 42.2437 39.7001 43.4095 39.7001 43.4095 45.692 43.2198 47.9966 39.2884 47.9966 39.2884c0-8.7304-3.9042-15.8069-3.9042-15.8069-3.9043-2.9282-7.6188-2.8469-7.6188-2.8469L36.094 21.0685c4.6092 1.4098 6.7512 3.4433 6.7512 3.4433-2.8198-1.5454-5.5853-2.3046-8.161-2.6028C32.732 21.6921 30.8612 21.7463 29.2073 21.9632 29.0653 21.9632 28.944 21.9838 28.8072 22.0071 28.7873 22.0105 28.7671 22.014 28.7464 22.0174 27.7975 22.0987 25.4929 22.4512 22.5918 23.7255 21.5886 24.1864 20.9921 24.5118 20.9921 24.5118s2.2504-2.1419 7.1307-3.5518L27.8517 20.6346S24.1372 20.5533 20.2329 23.4815c0 0-3.9042 7.0765-3.9042 15.8069.0.0 2.2775 3.9314 8.2694 4.1211.0.0 1.0032-1.22 1.8166-2.2503-3.4433-1.0303-4.7448-3.1994-4.7448-3.1994S21.9411 38.1496 22.4291 38.4208C22.4562 38.4479 22.4833 38.475 22.5375 38.5021 22.5782 38.5292 22.6189 38.5496 22.6596 38.5699 22.7002 38.5902 22.7409 38.6105 22.7816 38.6377 23.4594 39.0172 24.1372 39.3155 24.7608 39.5595 25.8724 39.9933 27.201 40.4271 28.7464 40.7254 30.7799 41.1049 33.1658 41.2405 35.7687 40.7525 37.043 40.5356 38.3444 40.156 39.7001 39.5866 40.649 39.2341 41.7064 38.719 42.8181 37.987c0 0-1.3557 2.2232-4.9075 3.2264z" fill="#e1523d"/></svg>