<svg width="64" height="64" viewBox="0 0 64 64" fill="#e1523d" xmlns="http://www.w3.org/2000/svg"><path d="M53.4717 20.7896C53.5046 21.274 53.5046 21.7585 53.5046 22.2474c0 14.8978-11.1445 32.0795-31.5225 32.0795V54.318C15.9623 54.3269 10.0676 52.5722 5 49.2635 5.87532 49.3707 6.75503 49.4243 7.63693 49.4265 12.6256 49.431 17.4717 47.7275 21.3963 44.5908 16.6556 44.4993 12.4984 41.3536 11.0461 36.7612 12.7068 37.0872 14.4179 37.0202 16.0479 36.567c-5.1686-1.0627-8.88702-5.6841-8.88702-11.0511C7.16088 25.4668 7.16088 25.4199 7.16088 25.373 8.70091 26.2459 10.4252 26.7304 12.189 26.784c-4.86798-3.3109-6.36852-9.9014-3.42885-15.0541C14.385 18.7736 22.6841 23.0556 31.5931 23.5088 30.7002 19.5929 31.9199 15.4895 34.7982 12.7367 39.2603 8.4681 46.2782 8.68689 50.4728 13.2257c2.4811-.4979 4.8592-1.4244 7.0354-2.7371C56.6812 13.0984 54.9503 15.3153 52.638 16.7241 54.834 16.4606 56.9795 15.8623 59 14.9492c-1.4874 2.2683-3.3609 4.2441-5.5283 5.8404z" fill="#e1523d"/></svg>