<svg width="64" height="64" viewBox="0 0 64 64" fill="#e1523d" xmlns="http://www.w3.org/2000/svg"><g clip-path="url(#clip0_47_5942)"><path d="M32.022 32.9121c1.8789.0 3.7156-.557200000000002 5.2779-1.601 1.5623-1.0439 2.7799-2.5276 3.4989-4.2635C41.5179 25.3117 41.706 23.4016 41.3394 21.5588 40.9729 19.7159 40.0681 18.0232 38.7395 16.6946c-1.3286-1.3286-3.0213-2.2334-4.8642-2.5999C32.0325 13.7281 30.1224 13.9162 28.3865 14.6353 26.6506 15.3543 25.1669 16.5719 24.123 18.1342c-1.0438 1.5623-1.601 3.399-1.601 5.2779C22.5241 25.931 23.5257 28.3462 25.3068 30.1273c1.7811 1.7811 4.1963 2.7827 6.7152 2.7848zm0-14.995c1.0878.0 2.1512.322599999999998 3.0556.9269C35.9821 19.4484 36.687 20.3074 37.1033 21.3124 37.5196 22.3173 37.6285 23.4232 37.4163 24.4901 37.2041 25.557 36.6803 26.537 35.9111 27.3062 35.1419 28.0754 34.1619 28.5992 33.095 28.8114 32.0281 29.0237 30.9222 28.9147 29.9172 28.4985c-1.005-.4163-1.8639-1.1213-2.4683-2.0257C26.8446 25.5683 26.522 24.5049 26.522 23.4171 26.522 21.9584 27.1014 20.5595 28.1329 19.528c1.0315-1.0314 2.4304-1.6109 3.8891-1.6109z" fill="#e1523d"/><path d="M12.052 37.0571c1.3845.0 2.7378-.410499999999999 3.889-1.1797C17.0921 35.1082 17.9893 34.015 18.5191 32.7359 19.049 31.4568 19.1876 30.0493 18.9175 28.6915 18.6474 27.3336 17.9807 26.0863 17.0017 25.1074 16.0228 24.1284 14.7755 23.4617 13.4176 23.1916 12.0598 22.9215 10.6523 23.0601 9.3732 23.59 8.09412 24.1198 7.00087 25.017 6.2317 26.1681c-.76917 1.1512-1.17971 2.5045-1.17971 3.889C5.05384 31.9131 5.79193 33.6925 7.10429 35.0048c1.31235 1.3124 3.09171 2.0505 4.94771 2.0523zm0-10C12.6453 27.0571 13.2254 27.2331 13.7187 27.5627S14.5966 28.3609 14.8236 28.9091C15.0507 29.4572 15.1101 30.0604 14.9943 30.6424 14.8786 31.2243 14.5929 31.7589 14.1733 32.1784 13.7538 32.598 13.2192 32.8837 12.6373 32.9995 12.0553 33.1152 11.4521 33.0558 10.9039 32.8288 10.3558 32.6017 9.88722 32.2172 9.55758 31.7238 9.22793 31.2305 9.05199 30.6505 9.05199 30.0571 9.05278 29.262 9.3692 28.4997 9.93173 27.9377 10.4943 27.3758 11.2569 27.0601 12.052 27.0601V27.0571z" fill="#e1523d"/><path d="M54.015 38.1001H49.982C48.4967 38.0988 47.0302 38.4317 45.691 39.0741 44.3822 37.5189 42.7492 36.2686 40.9064 35.4108 39.0637 34.5529 37.0556 34.1084 35.023 34.1081H28.977C26.948 34.1085 24.9435 34.5516 23.1033 35.4066 21.2632 36.2615 19.6318 37.5077 18.323 39.0581 16.9884 38.4258 15.5298 38.0985 14.053 38.1001H10.021C7.37431 38.103 4.83683 39.1556 2.96515 41.0269 1.09348 42.8982.0404281 45.4354.0369873 48.0821l2.0000027 2H62l2-2C63.9968 45.4352 62.9437 42.8976 61.0718 41.0262 59.1998 39.1548 56.6619 38.1025 54.015 38.1001zm-43.994 4h4.032C14.7774 42.1037 15.4951 42.2393 16.171 42.5001 15.6745 43.6429 15.3344 44.8474 15.16 46.0811H4.38099C4.79602 44.9171 5.56069 43.9098 6.57032 43.1971 7.57995 42.4845 8.78518 42.1013 10.021 42.1001zm9.18 3.983C19.6652 43.8325 20.8909 41.8106 22.6715 40.358c1.7807-1.4526 4.0075-2.2471 6.3055-2.2499h6.046C37.321 38.1106 39.548 38.9049 41.3288 40.3573c1.7808 1.4525 3.0067 3.4742 3.4712 5.7248L19.201 46.0831zm29.639.0C48.6666 44.853 48.3283 43.6518 47.834 42.5121 48.5184 42.2432 49.2467 42.1035 49.982 42.1001h4.033C55.2509 42.1014 56.4562 42.4848 57.4658 43.1979 58.4753 43.9109 59.2396 44.9187 59.654 46.0831H48.84z" fill="#e1523d"/><path d="M52.014 37.0571c1.3845.0 2.7378-.410499999999999 3.889-1.1797C57.0541 35.1082 57.9513 34.015 58.4811 32.7359 59.011 31.4568 59.1496 30.0493 58.8795 28.6915 58.6094 27.3336 57.9427 26.0863 56.9637 25.1074 55.9848 24.1284 54.7375 23.4617 53.3796 23.1916 52.0218 22.9215 50.6143 23.0601 49.3352 23.59 48.0561 24.1198 46.9629 25.017 46.1937 26.1681 45.4245 27.3193 45.014 28.6726 45.014 30.0571 45.0158 31.9131 45.7539 33.6925 47.0663 35.0048 48.3786 36.3172 50.158 37.0553 52.014 37.0571zm0-10C52.6073 27.0571 53.1874 27.2331 53.6807 27.5627 54.174 27.8923 54.5586 28.3609 54.7856 28.9091 55.0127 29.4572 55.0721 30.0604 54.9563 30.6424 54.8406 31.2243 54.5549 31.7589 54.1353 32.1784 53.7158 32.598 53.1812 32.8837 52.5993 32.9995 52.0173 33.1152 51.4141 33.0558 50.8659 32.8288 50.3178 32.6017 49.8492 32.2172 49.5196 31.7238 49.1899 31.2305 49.014 30.6505 49.014 30.0571 49.0148 29.262 49.3312 28.4997 49.8937 27.9377 50.4562 27.3758 51.2189 27.0601 52.014 27.0601V27.0571z" fill="#e1523d"/></g><defs><clipPath id="clip0_47_5942"><rect width="64" height="64" fill="#fff"/></clipPath></defs></svg>