<svg width="136" height="136" viewBox="0 0 136 136" fill="none" xmlns="http://www.w3.org/2000/svg"><path d="M68 136c13.4491.0 26.5962-3.988 37.779-11.46C116.961 117.068 125.677 106.448 130.824 94.0225 135.971 81.5971 137.317 67.9246 134.693 54.7339 132.07 41.5432 125.593 29.4267 116.083 19.9168 106.573 10.4068 94.4568 3.93043 81.2661 1.30663 68.0754-1.31716 54.4029.0294639 41.9775 5.17622 29.5521 10.323 18.932 19.0387 11.4601 30.2212 3.98813 41.4038.0 54.5509.0 68c0 18.0347 7.16426 35.331 19.9167 48.083C32.6692 128.836 49.9653 136 68 136z" fill="#fff"/><path d="M100.268 34.816H46.5415V93.8098H100.268V34.816z" fill="#c5ebf5" stroke="#0055dc" stroke-width="1.5" stroke-miterlimit="10"/><rect x="53.9153" y="41.1359" width="40.0315" height="46.3523" fill="#fff"/><path d="M74.985 45.3523H57.0762v2.1069H74.985V45.3523z" fill="#0055dc"/><path d="M89.7336 45.3518H78.1455v2.1069H89.7336V45.3518z" fill="#6ecce5"/><path d="M64.4504 52.7257H57.0762v2.1069h7.3742V52.7257z" fill="#0055dc"/><path d="M64.4504 81.1709H57.0762v2.1069h7.3742V81.1709z" fill="#0055dc"/><path d="M87.6266 52.7257H67.6108v2.1069H87.6266V52.7257z" fill="#6ecce5"/><path d="M67.6108 60.0994H57.0762v2.1069H67.6108V60.0994z" fill="#0055dc"/><path d="M83.4123 60.0994H70.7708v2.1069H83.4123V60.0994z" fill="#6ecce5"/><path d="M77.0915 67.4731H70.7708v2.107h6.3207v-2.107z" fill="#6ecce5"/><path d="M81.3053 74.849H66.5569v2.1069H81.3053V74.849z" fill="#6ecce5"/><path d="M72.8781 81.1709H67.6108v2.1069H72.8781V81.1709z" fill="#6ecce5"/><path d="M67.6108 67.4731H57.0762v2.107H67.6108v-2.107z" fill="#0055dc"/><path d="M63.3969 74.849H57.0762v2.1069h6.3207V74.849z" fill="#0055dc"/><path d="M92.8944 42.1898H39.168V101.184H92.8944V42.1898z" fill="#e2f5fa" stroke="#0055dc" stroke-width="1.5" stroke-miterlimit="10"/><rect x="46.5417" y="48.5117" width="40.0315" height="46.3523" fill="#fff"/><path d="M68.6657 82.1019H50.7568v1.748H68.6657v-1.748z" fill="#0055dc"/><path d="M83.4142 82.1016H71.8262V83.8496h11.588V82.1016z" fill="#6ecce5"/><path d="M58.1311 88.2173H50.7568v1.748H58.1311v-1.748z" fill="#0055dc"/><path d="M81.3072 88.2173H61.2915v1.748H81.3072v-1.748z" fill="#6ecce5"/><g clip-path="url(#clip0_1736_3336)"><path d="M71.0757 76.1295H64.2822V77.7924H71.0757V76.1295z" fill="#0055dc"/><path d="M68.4729 50.7068H66.81v3.5905H68.4729V50.7068z" fill="#0055dc"/><path d="M76.0832 54.14l-2.5386 2.5386 1.1756 1.1755L77.2588 55.3155 76.0832 54.14z" fill="#0055dc"/><path d="M80.4326 62.905H76.8425V64.5679H80.4326V62.905z" fill="#0055dc"/><path d="M58.5132 62.9778H54.9231v1.663h3.5901v-1.663z" fill="#0055dc"/><path d="M59.2209 54.1917l-1.1755 1.1755 2.5388 2.539 1.1756-1.1756L59.2209 54.1917z" fill="#0055dc"/><path d="M67.6779 55.8827C65.9681 55.8824 64.3046 56.4374 62.9376 57.4643 61.5706 58.4911 60.5741 59.9343 60.0982 61.5765 59.6224 63.2186 59.6928 64.9709 60.299 66.5696 60.9051 68.1683 62.0142 69.5268 63.4592 70.4406v3.1301L64.2894 74.4052h6.777L71.8966 73.5707V70.4406C73.3416 69.5268 74.4506 68.1683 75.0568 66.5696 75.6629 64.9709 75.7334 63.2186 75.2575 61.5765 74.7816 59.9343 73.7852 58.4911 72.4182 57.4643 71.0512 56.4374 69.3876 55.8824 67.6779 55.8827zM70.6682 69.2377 70.2362 69.4749v3.2657H65.1195V69.4749L64.6875 69.2377C63.4735 68.5735 62.5151 67.5241 61.9635 66.2549 61.412 64.9857 61.2986 63.569 61.6414 62.2283 61.9842 60.8876 62.7635 59.6991 63.8565 58.8504s2.4375-1.3094 3.8214-1.3094C69.0617 57.541 70.4062 58.0017 71.4992 58.8504S73.3716 60.8876 73.7143 62.2283C74.0571 63.569 73.9438 64.9857 73.3922 66.2549 72.8407 67.5241 71.8823 68.5735 70.6682 69.2377z" fill="#0055dc"/></g><defs><clipPath id="clip0_1736_3336"><rect width="27.1081" height="27.1081" fill="#fff" transform="translate(54.1238 50.7068)"/></clipPath></defs></svg>