<svg width="12" height="14" viewBox="0 0 12 14" fill="none" xmlns="http://www.w3.org/2000/svg"><path d="M4.08159 6.43934C4.08159 6.02586 4.38661 5.68695 4.77297 5.68695 5.15934 5.68695 5.47113 6.02586 5.46436 6.43934 5.46436 6.85281 5.15934 7.19172 4.77297 7.19172 4.39339 7.19172 4.08159 6.85281 4.08159 6.43934z" fill="#000"/><path d="M6.55565 6.43934C6.55565 6.02586 6.86067 5.68695 7.24703 5.68695 7.63339 5.68695 7.93842 6.02586 7.93842 6.43934 7.93842 6.85281 7.63339 7.19172 7.24703 7.19172 6.86745 7.19172 6.55565 6.85281 6.55565 6.43934z" fill="#000"/><path fill-rule="evenodd" clip-rule="evenodd" d="M1.45842.762939e-5H10.5413c.7659.0 1.3895.62359837061 1.3895 1.39632237061V13.5565l-1.4573-1.2879-.82019-.7591L8.7857 10.7029 9.14495 11.9568H1.45842c-.765943.0-1.3895418-.6236-1.3895418-1.3963V1.39633C.0688782.623606.692477.762939e-5 1.45842.762939e-5zM7.4775 8.30336C7.68085 8.56093 7.92486 8.8524 7.92486 8.8524 9.42285 8.80495 9.99901 7.8221 9.99901 7.8221c0-2.18259-.97607-3.95172-.97607-3.95172-.97607-.73205-1.90469-.71171-1.90469-.71171L7.02336 3.26712c1.1523.35247 1.68778.86084 1.68778.86084C8.0062 3.7416 7.31482 3.55181 6.67089 3.47725c-.48804-.05423-.95573-.04067-1.36921.01355C5.26618 3.4908 5.23584 3.49597 5.20165 3.50179 5.19667 3.50264 5.19162 3.5035 5.18645 3.50436c-.23724.02033-.81339.10845-1.53866.42703-.25079.11523-.39992.19657-.39992.19657s.5626-.53548 1.78268-.88795l-.06778-.08134s-.92862-.02034-1.90469.71171c0 0-.97606 1.76913-.97606 3.95172.0.0.56937.98285 2.06736 1.0303.0.0.2508-.305029999999999.45414-.5626C3.74269 8.03223 3.41733 7.48997 3.41733 7.48997S3.48511 7.53742 3.60712 7.6052C3.6139 7.61198 3.62068 7.61875 3.63423 7.62553 3.6444 7.63231 3.65457 7.6374 3.66474 7.64248 3.67491 7.64756 3.68507 7.65265 3.69524 7.65942c.16945.0949.33891.16946.49481.23046.277909999999999.10845.61004.21691.9964.29147C5.69482 8.27624 6.29131 8.31013 6.94202 8.18813 7.26059 8.1339 7.58595 8.03901 7.92486 7.89666 8.1621 7.80854 8.42645 7.67976 8.70436 7.49675c0 0-.33891.55581-1.22686.80661z" fill="#000"/></svg>