<svg width="26" height="26" viewBox="0 0 26 26" fill="none" xmlns="http://www.w3.org/2000/svg"><path fill-rule="evenodd" clip-rule="evenodd" d="M12.9959 2.41771c-5.83209.0-10.56246 4.84859-10.56246 10.83059C2.41747 15.5002 3.10511 17.7009 4.40034 19.5431c1.29523 1.8422 3.13339 3.2339 5.25785 3.9809C10.1863 23.6231 10.3789 23.2888 10.3789 23.002 10.3789 22.7448 10.3699 22.064 10.3647 21.1601 7.42666 21.8145 6.80672 19.7081 6.80672 19.7081c-.48019-1.2508-1.17284-1.5844-1.17284-1.5844C4.67472 17.4518 5.70659 17.4652 5.70659 17.4652 6.0437 17.515 6.36487 17.6416 6.64534 17.8352 6.92581 18.0287 7.15809 18.2841 7.32428 18.5816 8.26638 20.2362 9.79631 19.7597 10.3984 19.4814 10.445 18.935 10.6824 18.4224 11.0691 18.0336c-2.34569-.273-4.81285-1.2021-4.81285-5.3524C6.23898 11.6101 6.62731 10.5721 7.34338 9.7753 7.02093 8.8402 7.05785 7.81859 7.44697 6.90921c0 0 .886839999999999-.29128 2.90433 1.11028C12.0807 7.53307 13.9108 7.53307 15.6402 8.01949c2.0162-1.40156 2.9015-1.11028 2.9015-1.11028C18.9316 7.81833 18.9691 8.84004 18.6469 9.7753 19.3631 10.5719 19.751 11.6102 19.7328 12.6812c0 4.1604-2.4696 5.0781-4.8226 5.3442C15.1634 18.2909 15.3581 18.6066 15.4817 18.9521 15.6052 19.2976 15.6548 19.6652 15.6272 20.0311 15.6272 21.479 15.6142 22.6469 15.6142 23.002 15.6142 23.2916 15.8043 23.6284 16.3406 23.5228 18.4635 22.7746 20.3001 21.3825 21.5941 19.5407c1.294-1.8418 1.981-4.0415 1.9651-6.2924.0-5.982-4.7295-10.83059-10.5633-10.83059z" fill="#000"/><path d="M4.875 11.8163C4.875 11.8525 4.87744 11.8882 4.87784 11.9248 4.87784 11.8821 4.875 11.8395 4.87541 11.7972L4.875 11.8163z" fill="#000"/><path d="M23.5625 11.8163C23.5625 11.7871 23.5605 11.759 23.5605 11.7302c0 .0734999999999992.0.146599999999999.0.2202C23.5597 11.9053 23.5625 11.8626 23.5625 11.8163z" fill="#000"/><path d="M23.5625 11.6725C23.5625 11.64 23.5592 11.6075 23.5584 11.575 23.5584 11.6266 23.5621 11.6782 23.5625 11.7302 23.5601 11.7107 23.5625 11.692 23.5625 11.6725z" fill="#000"/></svg>