<svg width="18" height="15" viewBox="0 0 16 13" fill="none" xmlns="http://www.w3.org/2000/svg"><path fill-rule="evenodd" clip-rule="evenodd" d="M6.125.75C4.53718.75 3.25 2.03718 3.25 3.625S4.53718 6.5 6.125 6.5 9 5.21282 9 3.625 7.71282.75 6.125.75zM4.25 3.625c0-1.03553.83947-1.875 1.875-1.875S8 2.58947 8 3.625 7.16053 5.5 6.125 5.5 4.25 4.66053 4.25 3.625z" fill="#000"/><path fill-rule="evenodd" clip-rule="evenodd" d="M4.97577 7C4.35449 6.99994 3.73942 7.12351 3.1657 7.36353c-.57372.24002-1.0947.59171-1.5333 1.03475C1.1938 8.84131.846155 9.367.609059 9.94521.477933 10.265.390978 10.7053.335809 11.1087.279395 11.5213.25 11.9435.25 12.25l.5.5H15l.5-.5C15.5 11.7663 15.4064 11.1774 15.2346 10.628 15.0655 10.0873 14.8018 9.52404 14.422 9.1403 13.7309 8.44223 12.7926 8.04913 11.8132 8.04913H10.2039C10.1587 8.04912 10.1135 8.04995 10.0685 8.05162 9.23373 7.37382 8.19243 7 7.10959 7H4.97577zM4.97571 8C4.48717 7.99995 4.00329 8.09711 3.55164 8.28605 3.09998 8.47501 2.68926 8.75212 2.34305 9.10182 1.99684 9.45154 1.72194 9.867 1.53429 10.3246c-.08124.1981-.15512.5351-.2077.919599999999999C1.30302 11.4166 1.28494 11.5891 1.27229 11.75H9.5625V10.744H4.2665L3.75 9.875H9.5625V8.93349C8.88479 8.33236 8.01535 8 7.10959 8H4.97571zm5.46179 2.744h2.2828L12.2038 9.875H10.4375V9.04913h1.3757c.710900000000001.0 1.3938.28525 1.8981.79468C13.929 10.0638 14.132 10.4526 14.2802 10.9265 14.3666 11.2027 14.4279 11.4871 14.4634 11.75H10.4375V10.744z" fill="#000"/><path fill-rule="evenodd" clip-rule="evenodd" d="M9.75 5.375c0-1.1736.9514-2.125 2.125-2.125S14 4.2014 14 5.375 13.0486 7.5 11.875 7.5 9.75 6.5486 9.75 5.375zM11.875 4.25c-.6213.0-1.125.50368-1.125 1.125S11.2537 6.5 11.875 6.5 13 5.99632 13 5.375 12.4963 4.25 11.875 4.25z" fill="#000"/></svg>