<svg width="17" height="15" viewBox="0 0 14 13" fill="none" xmlns="http://www.w3.org/2000/svg"><path d="M11.5 2.87501H8.50001v1H11.5v-1z" fill="#000"/><path d="M8.50001 4.87501H11.5v1H8.50001v-1z" fill="#000"/><path d="M11.5 6.87501H8.50001v1H11.5v-1z" fill="#000"/><path fill-rule="evenodd" clip-rule="evenodd" d="M1.00001.250008l-.499999.5V11.25l.499999.5h4C5.55522 11.75 6.03998 12.0517 6.29934 12.5H7.70068C7.96004 12.0517 8.4448 11.75 9.00001 11.75H13l.5-.5V.750008l-.5-.5H9.00001c-.8178.0-1.54388.392672-2 .999752-.45611-.60708-1.1822-.999752-2-.999752h-4zm5.5 2.500002c0-.82843-.67157-1.5-1.5-1.5h-3.5V10.75h3.5c.5628.0 1.08217.186 1.5.4998V2.75001zm1 8.49979C7.91784 10.936 8.43721 10.75 9.00001 10.75H12.5V1.25001H9.00001c-.828429999999999.0-1.5.67157-1.5 1.5V11.2498z" fill="#000"/></svg>