<svg width="16" height="18" viewBox="0 0 16 18" fill="none" xmlns="http://www.w3.org/2000/svg"><path d="M7.92888 11.7207 8.85305 12.6448 12.2787 9.21923 8.85305 5.79688 7.92888 6.72104 9.77722 8.56611H0V9.87235H9.77722L7.92888 11.7207z" fill="#313131"/><path d="M14.8323 2.97822 14.3849 2.91617C12.4933 2.63674 10.7375 1.76965 9.3657.437591L8.9771.0H7.99742L7.61861.437591C6.25074 1.76965 4.49796 2.6369 2.60917 2.91617L2.16178 2.97822l-.56168.65312V7.29535H2.90634V4.19303c2.09867-.33816 4.04497-1.30621 5.58092-2.77576C10.0291 2.88949 11.9825 3.85765 14.0878 4.19303V8.24237c0 5.34253-4.94742 8.10853-5.60054 8.44163C7.98762 16.439 4.75794 14.6201 3.44843 11.2141H2.06381c1.44013 4.3857 5.68869 6.5606 5.90422 6.6683L8.19988 18h.58455L9.01628 17.8824C9.27753 17.7551 15.394 14.6168 15.394 8.24237V3.62481l-.5617-.64659z" fill="#313131"/></svg>