<svg width="14" height="14" viewBox="0 0 14 14" fill="none" xmlns="http://www.w3.org/2000/svg"><path d="M6.92648.500011c-1.28558.0-2.54229.381219-3.61121 1.095449C2.24635 2.30969 1.41323 3.32485.921258 4.51257.429288 5.70029.300566 7.00722.55137 8.2681s.86987 2.4191 1.77891 3.3281C3.23932 12.5052 4.39751 13.1243 5.65839 13.3751 6.91926 13.6259 8.2262 13.4972 9.41392 13.0052 10.6016 12.5133 11.6168 11.6801 12.331 10.6112c.7143-1.0689 1.0955-2.32561 1.0955-3.61119C13.4246 5.27669 12.7391 3.62451 11.5205 2.40594 10.302 1.18737 8.64979.50193 6.92648.500011zm0 11.999989c-1.0878.0-2.15117-.3226-3.05564-.9269-.90447-.6044-1.60942-1.4633-2.0257-2.46833-.41628-1.00499-.5252-2.11086-.31298-3.17776.21221-1.06689.73604-2.0469 1.50523-2.81609.76919-.76918 1.74919-1.29301 2.81609-1.50523 1.06689-.21222 2.17276-.1033 3.17775.31298 1.00497.41629 1.86397 1.12123 2.46837 2.02571C12.1039 4.84885 12.4265 5.91221 12.4265 7.00001 12.4248 8.45819 11.8448 9.85618 10.8137 10.8873 9.78264 11.9184 8.38466 12.4984 6.92648 12.5z" fill="#000"/><path d="M6.89173 9.17501C6.79988 9.17393 6.70877 9.19144 6.62387 9.2265S6.46205 9.31344 6.39773 9.37901C6.33116 9.44212 6.27839 9.51832 6.24272 9.60282 6.20705 9.68733 6.18926 9.7783 6.19047 9.87001 6.18887 9.96267 6.20645 10.0547 6.24212 10.1402 6.27779 10.2257 6.33077 10.3029 6.39773 10.367 6.46202 10.4326 6.53895 10.4845 6.62386 10.5195 6.70876 10.5545 6.79989 10.5719 6.89173 10.5708 7.01483 10.5723 7.13597 10.5398 7.24173 10.4768 7.3464 10.4148 7.43403 10.3278 7.49673 10.2235 7.57612 10.0908 7.60831 9.93515 7.58807 9.78184 7.56783 9.62853 7.49634 9.48656 7.38523 9.37901 7.32091 9.31357 7.24406 9.26178 7.15926 9.22672 7.07447 9.19167 6.98347 9.17408 6.89173 9.17501z" fill="#000"/><path d="M8.11373 4.09801C7.7761 3.94965 7.41018 3.8767 7.04148 3.88426 6.6915 3.87996 6.34454 3.94947 6.02323 4.08826c-.29951.12959-.55592.34178-.73925.61175C5.08896 5.00176 4.9865 5.35399 4.98923 5.71326H6.12498C6.12821 5.53769 6.17939 5.36635 6.27297 5.21776 6.3558 5.09197 6.47101 4.99083 6.60648 4.92501 6.74015 4.86046 6.88679 4.82729 7.03523 4.82801 7.18933 4.82577 7.34171 4.86067 7.47948 4.92976 7.61377 4.99585 7.72621 5.09918 7.80339 5.22742 7.88057 5.35566 7.91922 5.5034 7.91473 5.65301 7.9168 5.79263 7.88623 5.93079 7.82548 6.05651 7.76432 6.17855 7.68176 6.28863 7.58173 6.38151 7.47404 6.48149 7.35682 6.57067 7.23173 6.64776c-.17638.10662-.33815.2357-.48125.384-.14218.15763-.24627.3458-.30425.55-.0805199999999999.29914-.11756.60831-.11.918V8.58251H7.39748V8.49976C7.39463 8.30711 7.42196 8.11521 7.47848 7.93101 7.52858 7.78041 7.61129 7.64272 7.72073 7.52776c.12614-.12793.26803-.23932.42225-.3315C8.32928 7.08666 8.49984 6.95227 8.64997 6.79676 8.79146 6.64948 8.90339 6.47644 8.97972 6.28701 9.06026 6.07993 9.09982 5.85918 9.09622 5.63701 9.10455 5.30731 9.01409 4.98265 8.83648 4.70476 8.65799 4.43805 8.40732 4.22761 8.11373 4.09801z" fill="#000"/></svg>