<svg xmlns="http://www.w3.org/2000/svg" version="1.1" xmlns:xlink="http://www.w3.org/1999/xlink" xmlns:svgjs="http://svgjs.dev/svgjs" width="1000" height="1000" viewBox="0 0 1000 1000"><rect width="1000" height="1000" fill="#ffffff"></rect><g transform="matrix(0.7,0,0,0.7,149.5757575757575,372.3062693316158)"><svg viewBox="0 0 396 145" data-background-color="#ffffff" preserveAspectRatio="xMidYMid meet" height="366" width="1000" xmlns="http://www.w3.org/2000/svg" xmlns:xlink="http://www.w3.org/1999/xlink"><g id="tight-bounds" transform="matrix(1,0,0,1,0.24000000000003752,-0.22993385278803657)"><svg viewBox="0 0 395.5199999999999 145.459865607121" height="145.459865607121" width="395.5199999999999"><g><svg viewBox="0 0 395.52000000000004 145.45986560712103" height="145.459865607121" width="395.5199999999999"><g transform="matrix(1,0,0,1,0,89.90003250559113)"><svg viewBox="0 0 395.52000000000004 55.55983310152991" height="55.55983310152991" width="395.52000000000004"><g id="textblocktransform"><svg viewBox="0 0 395.52000000000004 55.55983310152991" height="55.55983310152991" width="395.52000000000004" id="textblock"><g><svg viewBox="0 0 395.52000000000004 55.55983310152991" height="55.55983310152991" width="395.52000000000004"><g transform="matrix(1,0,0,1,0,0)"><svg width="395.52000000000004" viewBox="4.25 -35.04999923706055 287.57000732421875 40.39999771118164" height="55.55983310152991" data-palette-color="#007d8a"><path d="M26.1-34.4L26.1 0 20.1 0 7.85-29.55Q8.45-22.95 8.45-16.7L8.45-16.7 8.45 0 4.25 0 4.25-34.4 10.2-34.4 22.5-4.8Q22.3-6.55 22.08-9.6 21.85-12.65 21.85-15.65L21.85-15.65 21.85-34.4 26.1-34.4ZM52.85-13.95Q52.85-12.9 52.75-11.6L52.75-11.6 37.45-11.6Q37.65-7 39.3-4.98 40.95-2.95 43.8-2.95L43.8-2.95Q45.6-2.95 47.02-3.5 48.45-4.05 50-5.3L50-5.3 52-2.65Q48.3 0.65 43.6 0.65L43.6 0.65Q38.45 0.65 35.62-2.93 32.8-6.5 32.8-12.95L32.8-12.95Q32.8-19.4 35.5-23.18 38.2-26.95 43-26.95L43-26.95Q47.75-26.95 50.3-23.58 52.85-20.2 52.85-13.95L52.85-13.95ZM48.5-14.75L48.5-15.3Q48.5-23.55 43.05-23.55L43.05-23.55Q40.55-23.55 39.1-21.48 37.65-19.4 37.45-14.75L37.45-14.75 48.5-14.75ZM77.15-26.3L77.15 0 73.25 0 73-3.95Q70.25 0.65 65.65 0.65L65.65 0.65Q62.5 0.65 60.7-1.4 58.9-3.45 58.9-6.95L58.9-6.95 58.9-26.3 63.4-26.3 63.4-7.35Q63.4-5.05 64.27-3.98 65.15-2.9 66.9-2.9L66.9-2.9Q70.25-2.9 72.65-7.3L72.65-7.3 72.65-26.3 77.15-26.3ZM96.04-26.9Q97.34-26.9 98.29-26.6L98.29-26.6 97.54-22.25Q96.59-22.55 95.49-22.55L95.49-22.55Q93.29-22.55 91.92-20.8 90.54-19.05 89.74-15.45L89.74-15.45 89.74 0 85.24 0 85.24-26.3 89.14-26.3 89.49-21.1Q91.44-26.9 96.04-26.9L96.04-26.9ZM111.84-26.95Q116.89-26.95 119.69-23.4 122.49-19.85 122.49-13.2L122.49-13.2Q122.49-6.8 119.64-3.08 116.79 0.65 111.79 0.65L111.79 0.65Q106.74 0.65 103.92-3 101.09-6.65 101.09-13.15L101.09-13.15Q101.09-19.7 103.94-23.33 106.79-26.95 111.84-26.95L111.84-26.95ZM111.84-23.35Q108.89-23.35 107.34-20.88 105.79-18.4 105.79-13.15L105.79-13.15Q105.79-2.9 111.79-2.9L111.79-2.9Q117.79-2.9 117.79-13.2L117.79-13.2Q117.79-18.45 116.29-20.9 114.79-23.35 111.84-23.35L111.84-23.35ZM146.19-1.7Q151.44-1.65 155.34 1.7L155.34 1.7 152.34 5.35Q149.89 2.75 147.24 1.63 144.59 0.5 140.44 0.5L140.44 0.5Q136.54 0.5 133.61-1.5 130.69-3.5 129.06-7.45 127.44-11.4 127.44-17.15L127.44-17.15Q127.44-22.9 129.06-26.93 130.69-30.95 133.66-33 136.64-35.05 140.64-35.05L140.64-35.05Q146.79-35.05 150.31-30.5 153.84-25.95 153.84-17.2L153.84-17.2Q153.84-10.75 151.84-7.13 149.84-3.5 146.19-1.7L146.19-1.7ZM132.34-17.15Q132.34-3.1 140.64-3.1L140.64-3.1Q144.74-3.1 146.84-6.45 148.94-9.8 148.94-17.2L148.94-17.2Q148.94-24.6 146.81-27.98 144.69-31.35 140.64-31.35L140.64-31.35Q132.34-31.35 132.34-17.15L132.34-17.15ZM178.44-26.3L178.44 0 174.53 0 174.28-3.95Q171.53 0.65 166.94 0.65L166.94 0.65Q163.78 0.65 161.99-1.4 160.19-3.45 160.19-6.95L160.19-6.95 160.19-26.3 164.69-26.3 164.69-7.35Q164.69-5.05 165.56-3.98 166.44-2.9 168.19-2.9L168.19-2.9Q171.53-2.9 173.94-7.3L173.94-7.3 173.94-26.3 178.44-26.3ZM204.98-13.95Q204.98-12.9 204.88-11.6L204.88-11.6 189.58-11.6Q189.78-7 191.43-4.98 193.08-2.95 195.93-2.95L195.93-2.95Q197.73-2.95 199.16-3.5 200.58-4.05 202.13-5.3L202.13-5.3 204.13-2.65Q200.43 0.65 195.73 0.65L195.73 0.65Q190.58 0.65 187.76-2.93 184.93-6.5 184.93-12.95L184.93-12.95Q184.93-19.4 187.63-23.18 190.33-26.95 195.13-26.95L195.13-26.95Q199.88-26.95 202.43-23.58 204.98-20.2 204.98-13.95L204.98-13.95ZM200.63-14.75L200.63-15.3Q200.63-23.55 195.18-23.55L195.18-23.55Q192.68-23.55 191.23-21.48 189.78-19.4 189.58-14.75L189.58-14.75 200.63-14.75ZM218.03-26.95Q222.58-26.95 226.13-23.95L226.13-23.95 224.23-21.3Q222.63-22.4 221.23-22.95 219.83-23.5 218.28-23.5L218.28-23.5Q216.23-23.5 215.06-22.53 213.88-21.55 213.88-19.85L213.88-19.85Q213.88-18.2 215-17.25 216.13-16.3 219.28-15.3L219.28-15.3Q223.23-14.05 225.03-12.25 226.83-10.45 226.83-7.3L226.83-7.3Q226.83-3.6 224.13-1.48 221.43 0.65 217.38 0.65L217.38 0.65Q212.03 0.65 208.33-2.9L208.33-2.9 210.63-5.4Q213.78-2.85 217.28-2.85L217.28-2.85Q219.48-2.85 220.83-3.95 222.18-5.05 222.18-7L222.18-7Q222.18-8.4 221.71-9.25 221.23-10.1 220-10.78 218.78-11.45 216.43-12.2L216.43-12.2Q212.68-13.45 211.03-15.2 209.38-16.95 209.38-19.65L209.38-19.65Q209.38-21.75 210.48-23.4 211.58-25.05 213.53-26 215.48-26.95 218.03-26.95L218.03-26.95ZM243.38-4.05L245.03-1.15Q242.53 0.65 239.48 0.65L239.48 0.65Q236.28 0.65 234.55-1.2 232.83-3.05 232.83-6.4L232.83-6.4 232.83-22.9 229.08-22.9 229.08-26.3 232.83-26.3 232.83-32.35 237.33-32.9 237.33-26.3 243.13-26.3 242.63-22.9 237.33-22.9 237.33-6.45Q237.33-3.05 240.18-3.05L240.18-3.05Q241.03-3.05 241.75-3.3 242.48-3.55 243.38-4.05L243.38-4.05ZM282.57 0L277.77 0 275.47-8.75 263.92-8.75 261.62 0 256.97 0 266.92-34.4 272.62-34.4 282.57 0ZM269.72-30.7L264.87-12.4 274.52-12.4 269.72-30.7ZM287.17-34.4L291.82-34.4 291.82 0 287.17 0 287.17-34.4Z" opacity="1" transform="matrix(1,0,0,1,0,0)" fill="#000000" class="wordmark-text-0" data-fill-palette-color="primary" id="text-0"></path></svg></g></svg></g></svg></g></svg></g><g transform="matrix(1,0,0,1,159.36815532684284,0)"><svg viewBox="0 0 76.78368934631433 76.78368934631435" height="76.78368934631435" width="76.78368934631433"><g><svg></svg></g><g id="icon-0"><svg viewBox="0 0 76.78368934631433 76.78368934631435" height="76.78368934631435" width="76.78368934631433"><g><path xmlns="http://www.w3.org/2000/svg" d="M23.035 76.784c-12.722 0-23.035-10.313-23.035-23.035v-30.714c0-12.722 10.313-23.035 23.035-23.035h30.714c12.722 0 23.035 10.313 23.035 23.035v30.714c0 12.722-10.313 23.035-23.035 23.035z" fill="#000000" fill-rule="nonzero" stroke="none" stroke-width="1" stroke-linecap="butt" stroke-linejoin="miter" stroke-miterlimit="10" stroke-dasharray="" stroke-dashoffset="0" font-family="none" font-weight="none" font-size="none" text-anchor="none" style="mix-blend-mode: normal" data-fill-palette-color="accent"></path></g><g transform="matrix(1,0,0,1,15.356737869262862,15.357318665715976)"><svg viewBox="0 0 46.07021360778861 46.069052014882395" height="46.069052014882395" width="46.07021360778861"><g><svg xmlns="http://www.w3.org/2000/svg" xmlns:xlink="http://www.w3.org/1999/xlink" version="1.1" x="0" y="0" viewBox="3.001220703125 3.0017974376678467 63.998046875 63.99643325805664" style="enable-background:new 0 0 70 70;" xml:space="preserve" height="46.069052014882395" width="46.07021360778861" class="icon-s-0" data-fill-palette-color="quaternary" id="s-0"><path d="M9.218 49.971c-0.388 1.576-0.888 4.934 0.855 7.84 1.413 2.355 3.948 3.856 7.541 4.465 0.605 1.059 1.949 2.671 3.711 3.669 1.003 0.566 2.34 1.054 3.973 1.053 1.508 0 3.269-0.416 5.251-1.569 1.512-0.879 2.451-2.53 2.451-4.307v-5.12h26.141c0.447 1.72 1.999 3 3.858 2.999 2.206 0 4-1.794 4-3.999s-1.794-4-4-4c-1.859 0-3.411 1.28-3.858 3H33v-15h13.002l3.72 3.719c-0.452 0.648-0.722 1.432-0.722 2.281 0 2.206 1.794 4 4 4s4-1.794 4-4-1.794-4-4-4c-0.63 0-1.219 0.16-1.749 0.42l-3.835-3.834c-0.378-0.378-0.88-0.586-1.414-0.586H33v-9h9.142c0.447 1.72 1.999 3 3.858 3 2.206 0 4-1.794 4-4s-1.794-4-4-4c-1.859 0-3.411 1.28-3.858 3h-9.142v-14h14v5c0 1.103 0.897 2 2 2h7.142c0.447 1.72 1.999 3 3.857 3 2.206 0 4-1.794 4-4s-1.794-4-4-4c-1.858 0-3.41 1.28-3.857 3h-7.142v-5c0-1.103-0.897-2-2-2h-14V7.426c0-1.392-0.467-2.604-1.314-3.414-0.74-0.708-1.717-1.06-2.819-1.004-4.385 0.228-12.063 1.657-15.033 8.588-0.936 0.181-2.792 0.679-4.714 1.987-2.459 1.672-5.507 5.034-6.066 11.558-0.284 3.354 0.586 6.514 2.56 9.412-1.687 1.826-2.612 4.062-2.613 6.387C3.001 44.669 5.414 48.132 9.218 49.971zM62.999 53.002c1.103 0 2 0.897 2 2 0 1.103-0.897 2-2 1.999s-2-0.897-2-1.999C60.999 53.899 61.897 53.002 62.999 53.002zM53 43.002c1.103 0 2 0.897 2 2s-0.897 2-2 2-2-0.897-2-2S51.898 43.002 53 43.002zM46 25.002c1.103 0 2 0.897 2 2s-0.897 2-2 2-2-0.897-2-2S44.898 25.002 46 25.002zM59.999 16.002c1.103 0 2 0.897 2 2s-0.897 2-2 2-1.999-0.897-1.999-2S58.897 16.002 59.999 16.002zM23.274 32.916c-2.213-1.539-5.01-2.386-7.877-2.386-3.078 0-6.036 0.963-8.291 2.668-1.599-2.447-2.297-5.095-2.06-7.887 0.933-10.849 9.244-11.785 9.594-11.819 0.382-0.035 0.711-0.285 0.846-0.643 2.391-6.34 9.476-7.636 13.479-7.844 0.564-0.029 0.999 0.127 1.339 0.453 0.442 0.422 0.696 1.14 0.696 1.968v53.696c0 1.068-0.559 2.056-1.457 2.579-2.172 1.262-4.202 1.607-6.037 1.026-2.75-0.872-4.183-3.472-4.309-3.714-0.126-0.333-0.425-0.585-0.795-0.638-3.229-0.46-5.451-1.665-6.607-3.582-1.834-3.042-0.448-6.999-0.435-7.036 0.036-0.099 0.041-0.2 0.045-0.3 0.001-0.024 0.011-0.048 0.011-0.072-0.003-0.085-0.029-0.163-0.052-0.243-0.013-0.045-0.015-0.092-0.034-0.135-0.023-0.051-0.063-0.092-0.095-0.14-0.041-0.062-0.075-0.126-0.129-0.178-0.025-0.023-0.059-0.035-0.086-0.056-0.072-0.056-0.142-0.116-0.231-0.151-3.57-1.432-5.788-4.321-5.788-7.542 0-2.033 0.919-4.002 2.588-5.545 1.966-1.821 4.813-2.865 7.808-2.865 2.463 0 4.854 0.72 6.734 2.028 0.455 0.315 1.076 0.204 1.393-0.25C23.839 33.855 23.727 33.232 23.274 32.916z" fill="#ffffff" data-fill-palette-color="quaternary"></path><path d="M14.047 41.714c-0.552-0.056-1.041 0.346-1.096 0.895-0.055 0.549 0.346 1.04 0.895 1.095 0.31 0.031 7.576 0.87 7.335 10.208-0.014 0.552 0.422 1.011 0.975 1.025 0.009 0 0.018 0 0.025 0.001 0.541 0 0.985-0.431 1-0.974C23.469 42.792 14.141 41.724 14.047 41.714z" fill="#ffffff" data-fill-palette-color="quaternary"></path><path d="M25.036 15.838c-0.551-0.075-1.049 0.315-1.12 0.862-0.25 1.913-0.974 3.309-2.153 4.151-1.984 1.417-4.688 0.889-4.726 0.882-0.538-0.113-1.068 0.233-1.181 0.773-0.114 0.541 0.232 1.071 0.772 1.184 0.062 0.013 0.718 0.146 1.661 0.146 1.271 0 3.063-0.242 4.619-1.345 1.659-1.177 2.666-3.038 2.991-5.532C25.971 16.411 25.584 15.909 25.036 15.838z" fill="#ffffff" data-fill-palette-color="quaternary"></path></svg></g></svg></g></svg></g></svg></g><g></g></svg></g><defs></defs></svg><rect width="395.5199999999999" height="145.459865607121" fill="none" stroke="none" visibility="hidden"></rect></g></svg></g></svg>